<?xml version="1.0" encoding="UTF-8"?><svg id="Layer_2" xmlns="http://www.w3.org/2000/svg" viewBox="0 0 512 512"><defs><style>.cls-1{fill:none;}.cls-1,.cls-2,.cls-3,.cls-4{stroke-width:0px;}.cls-2{fill:#0099e5;}.cls-3{fill:#fff;}.cls-4{fill:#03316c;}</style></defs><g id="Layer_1-2"><rect class="cls-2" width="512" height="512" rx="76.8" ry="76.8"/><g id="Layer_1-3"><rect class="cls-1" x="34.686" y="36.251" width="439.498" height="439.498"/><g id="_2495404453392"><path class="cls-3" d="m254.436,36.251l-190.373,109.875v219.749l190.373,109.875,190.373-109.875v-219.749L254.436,36.251h0Zm0,0l-190.373,109.875v219.749l190.373,109.875,190.373-109.875v-219.749L254.436,36.251h0Z"/><path class="cls-4" d="m329.59,389.906h-27.091l-32.417-29.763v-15.259l33.578-32.048v-50.736l43.88-28.62,49.98,37.762-67.929,118.665h0Zm-112.16-80.112l4.958-47.694-16.402-42.737h96.901l-16.033,42.737,4.588,47.694h-74.012Zm22.133,50.349l-32.435,30.132h-27.477l-68.298-119.034,50.367-37.393,44.249,28.233v50.736l33.578,32.048.018,15.277h0Zm-60.282-228.891h149.939l17.932,76.297h-185.416l17.545-76.297h0Zm75.154-95.002l-190.373,109.875v219.749l190.373,109.875,190.373-109.875v-219.749L254.436,36.251h0Z"/></g></g></g></svg>