<?xml version="1.0" encoding="UTF-8"?><svg id="Layer_2" xmlns="http://www.w3.org/2000/svg" xmlns:xlink="http://www.w3.org/1999/xlink" viewBox="0 0 700 700"><defs><style>.cls-1{fill:url(#radial-gradient);}.cls-1,.cls-2,.cls-3,.cls-4{stroke-width:0px;}.cls-2{fill:url(#radial-gradient-2);}.cls-4{fill:#654c9f;}</style><radialGradient id="radial-gradient" cx="156.036" cy="617.42" fx="156.036" fy="617.42" r="711.335" gradientTransform="translate(-15.399 1083.146) rotate(-3) scale(1 -.85)" gradientUnits="userSpaceOnUse"><stop offset="0" stop-color="#fed576"/><stop offset=".263" stop-color="#f47133"/><stop offset=".609" stop-color="#bc3081"/><stop offset="1" stop-color="#4c63d2"/></radialGradient><radialGradient id="radial-gradient-2" cx="253.759" cy="502.087" fx="253.759" fy="502.087" r="365.28" gradientTransform="translate(-2.787 892.64) rotate(-3) scale(1 -.85)" xlink:href="#radial-gradient"/></defs><g id="Camada_1"><path class="cls-3" d="m100,0h500c55,0,100,45,100,100v500c0,55-45,100-100,100H100c-55,0-100-45-100-100V100C0,45,45,0,100,0Z"/><g id="Symbol"><path class="cls-1" d="m188.9,116.95c-16.2,6.3-29.9,14.7-43.6,28.4-13.7,13.6-22.1,27.4-28.4,43.5-6.1,15.6-10.2,33.5-11.4,59.7s-1.5,34.6-1.5,101.4.3,75.2,1.5,101.4c1.2,26.2,5.4,44.1,11.4,59.7,6.3,16.2,14.7,29.9,28.4,43.6,13.7,13.7,27.4,22.1,43.6,28.4,15.6,6.1,33.5,10.2,59.7,11.4,26.2,1.2,34.6,1.5,101.4,1.5s75.2-.3,101.4-1.5c26.2-1.2,44.1-5.4,59.7-11.4,16.2-6.3,29.9-14.7,43.6-28.4,13.7-13.7,22.1-27.4,28.4-43.6,6.1-15.6,10.2-33.5,11.4-59.7,1.2-26.2,1.5-34.6,1.5-101.4s-.3-75.2-1.5-101.4-5.4-44.1-11.4-59.7c-6.3-16.1-14.7-29.9-28.3-43.5-13.7-13.7-27.4-22.1-43.6-28.4-15.6-6.1-33.5-10.2-59.7-11.4s-34.6-1.5-101.4-1.5-75.2.3-101.4,1.5c-26.3,1.1-44.2,5.3-59.8,11.4Zm260.5,32.8c24,1.1,37,5.1,45.7,8.5,11.5,4.5,19.7,9.8,28.3,18.4,8.6,8.6,13.9,16.8,18.4,28.3,3.4,8.7,7.4,21.7,8.5,45.7,1.2,25.9,1.4,33.7,1.4,99.4s-.3,73.5-1.4,99.4c-1.1,24-5.1,37-8.5,45.7-4.5,11.5-9.8,19.7-18.4,28.3-8.6,8.6-16.8,13.9-28.3,18.4-8.7,3.4-21.7,7.4-45.7,8.5-25.9,1.2-33.7,1.4-99.4,1.4s-73.5-.3-99.4-1.4c-24-1.1-37-5.1-45.7-8.5-11.5-4.5-19.7-9.8-28.3-18.4-8.6-8.6-13.9-16.8-18.4-28.3-3.4-8.7-7.4-21.7-8.5-45.7-1.2-25.9-1.4-33.7-1.4-99.4s.3-73.5,1.4-99.4c1.1-24,5.1-37,8.5-45.7,4.5-11.5,9.8-19.7,18.4-28.3,8.6-8.6,16.8-13.9,28.3-18.4,8.7-3.4,21.7-7.4,45.7-8.5,25.9-1.2,33.7-1.4,99.4-1.4s73.5.2,99.4,1.4Z"/><path class="cls-2" d="m223.7,350.05c0,69.8,56.6,126.3,126.3,126.3s126.3-56.6,126.3-126.3-56.5-126.3-126.3-126.3-126.3,56.5-126.3,126.3Zm208.3,0c0,45.3-36.7,82-82,82s-82-36.7-82-82,36.7-82,82-82,82,36.7,82,82Z"/><circle class="cls-4" cx="481.4" cy="218.75" r="29.5"/></g></g></svg>