<?xml version="1.0" encoding="UTF-8"?><svg id="Layer_2" xmlns="http://www.w3.org/2000/svg" viewBox="0 0 512 512"><defs><style>.cls-1{fill:#0099e5;}.cls-1,.cls-2{stroke-width:0px;}.cls-2{fill:#fff;}</style></defs><g id="Layer_1-2"><rect class="cls-1" width="512" height="512" rx="76.8" ry="76.8"/><g id="_13-alipay"><polygon class="cls-2" points="484.504 407 51 407 51 79 474 79 484.504 407"/><path class="cls-1" d="m412.702,21.5H96.987c-39.892,0-72.141,32.251-72.141,72.142v315.715c0,39.89,32.249,72.142,72.141,72.142h315.716c39.551,0,71.628-31.911,72.14-71.463-47.189-26.308-113.55-61.955-176.194-90.809-32.928,45.146-86.394,83.169-152.6,83.169-72.482,0-96.24-46.513-99.641-78.416-4.075-40.056,15.279-83.683,102.186-83.683,36.328,0,81.476,10.524,130.537,25.629,16.972-30.896,27.156-61.956,27.156-61.956h-182.972v-17.147h94.546v-32.077h-112.372v-19.519h112.372v-51.771h52.284v51.771h112.371v19.519h-112.383v32.077h91.148s-15.617,47.868-39.378,93.355c50.24,17.147,102.688,37.006,152.601,54.151V93.642c.166-39.726-32.076-72.142-71.802-72.142ZM73.391,320.242c1.018,20.711,10.524,55.171,71.803,55.171,53.464,0,95.061-40.744,121.027-74.852-45.824-19.182-86.742-32.252-112.372-32.252-69.256,0-81.474,33.943-80.458,51.933Z"/></g></g></svg>