<?xml version="1.0" encoding="UTF-8"?><svg id="Layer_2" xmlns="http://www.w3.org/2000/svg" viewBox="0 0 512 512"><defs><style>.cls-1{fill:#fff;fill-rule:evenodd;}.cls-1,.cls-2{stroke-width:0px;}</style></defs><g id="Layer_1-2"><rect class="cls-2" width="512" height="512" rx="76.8" ry="76.8"/><g id="Page-1"><g id="Dribbble-Light-Preview"><g id="icons"><path id="apple-_173_" class="cls-1" d="m323.597,106.161c16.049-18.594,26.866-44.508,23.906-70.283-23.127.881-51.106,14.768-67.689,33.352-14.891,16.488-27.89,42.832-24.396,68.101,25.798,1.913,52.13-12.543,68.179-31.17m57.851,163.598c.645,66.628,60.989,88.791,61.657,89.081-.49,1.558-9.638,31.589-31.786,62.619-19.165,26.817-39.042,53.515-70.36,54.085-30.762.548-40.667-17.477-75.858-17.477s-46.165,16.907-75.279,18.025c-30.227,1.086-53.265-29.009-72.564-55.729-39.487-54.655-69.648-154.462-29.137-221.811,20.122-33.438,56.07-54.644,95.112-55.171,29.671-.548,57.695,19.132,75.836,19.132s52.197-23.668,87.989-20.185c14.98.591,57.049,5.793,84.049,43.67-2.181,1.301-50.194,28.064-49.659,83.761"/></g></g></g></g></svg>