<?xml version="1.0" encoding="UTF-8"?><svg id="Layer_2" xmlns="http://www.w3.org/2000/svg" viewBox="0 0 652.211 800"><defs><style>.cls-1{fill:#fff;stroke-width:0px;}</style></defs><g id="Capa_1"><path class="cls-1" d="m480.042,0h5.691c4.567,56.418-16.967,98.573-43.139,129.1-25.68,30.317-60.844,59.72-117.718,55.258-3.794-55.61,17.775-94.638,43.912-125.096C393.027,30.879,437.465,5.621,480.042,0Z"/><path class="cls-1" d="m652.211,587.222v1.581c-15.984,48.408-38.783,89.896-66.605,128.398-25.398,34.954-56.523,81.992-112.098,81.992-48.022,0-79.919-30.879-129.135-31.722-52.062-.843-80.692,25.82-128.292,32.53h-16.23c-34.954-5.059-63.163-32.74-83.713-57.682C55.539,668.616,8.712,573.416,0,451.587v-35.797c3.689-87.191,46.055-158.082,102.367-192.438,29.719-18.267,70.575-33.83,116.067-26.874,19.497,3.021,39.415,9.696,56.874,16.3,16.546,6.358,37.237,17.635,56.839,17.038,13.279-.386,26.487-7.307,39.872-12.19,39.204-14.157,77.636-30.387,128.292-22.764,60.879,9.204,104.088,36.253,130.786,77.987-51.5,32.776-92.214,82.167-85.259,166.513,6.183,76.617,50.727,121.442,106.372,147.859Z"/></g></svg>