<?xml version="1.0" encoding="UTF-8"?>
<svg id="Layer_2" data-name="Layer 2" xmlns="http://www.w3.org/2000/svg" viewBox="0 0 629.8 147.07">
  <defs>
    <style>
      .cls-1 {
        fill: #030303;
        stroke-width: 0px;
      }
    </style>
  </defs>
  <g id="Layer_1-2" data-name="Layer 1">
    <g id="Logos">
      <g>
        <g>
          <path class="cls-1" d="m74.33,91.49l-56.03-31.14v-7.64s0-.09,0-.13v-.46c0-2.17.12-3.97,2.81-5.46h0l31.77-17.66c1.26-.7,2.57-.81,3.86-.81s2.6.11,3.86.81l52.88,29.39v-20.94l-47.59-26.45V0h-18.3v11.01L8.06,32.98C1.07,36.87,0,41.95,0,49.04v22.08l55.49,30.84,18.84-10.47Z"/>
          <path class="cls-1" d="m39.15,55.57l56.03,31.14v7.64s0,.09,0,.13v.46c0,2.16-.12,3.97-2.81,5.46h0l-31.77,17.66c-1.26.7-2.57.81-3.86.81s-2.6-.1-3.86-.81L0,88.67v20.94l47.59,26.45v11.01h18.3v-11.01l39.53-21.97c6.99-3.89,8.06-8.97,8.06-16.06v-22.08l-55.49-30.84-18.84,10.47Z"/>
        </g>
        <g>
          <path class="cls-1" d="m157.12,107.28c-5.14-1.49-9.26-3.43-12.38-5.82l5.47-12.12c2.98,2.19,6.53,3.94,10.64,5.27,4.11,1.33,8.22,1.99,12.32,1.99,4.57,0,7.95-.68,10.14-2.04,2.19-1.36,3.28-3.16,3.28-5.42,0-1.66-.65-3.03-1.94-4.12s-2.95-1.97-4.97-2.63c-2.02-.66-4.76-1.39-8.2-2.19-5.3-1.26-9.64-2.52-13.02-3.78-3.38-1.26-6.28-3.28-8.7-6.06-2.42-2.78-3.63-6.49-3.63-11.13,0-4.04,1.09-7.7,3.28-10.98,2.19-3.28,5.48-5.88,9.89-7.8,4.41-1.92,9.79-2.88,16.15-2.88,4.44,0,8.78.53,13.02,1.59,4.24,1.06,7.95,2.58,11.13,4.57l-4.97,12.23c-6.43-3.64-12.86-5.47-19.28-5.47-4.51,0-7.84.73-9.99,2.19-2.15,1.46-3.23,3.38-3.23,5.77s1.24,4.16,3.73,5.32c2.48,1.16,6.28,2.3,11.38,3.43,5.3,1.26,9.64,2.52,13.02,3.78,3.38,1.26,6.28,3.25,8.7,5.96,2.42,2.72,3.63,6.4,3.63,11.03,0,3.98-1.11,7.6-3.33,10.88-2.22,3.28-5.55,5.88-9.99,7.8-4.44,1.92-9.84,2.88-16.2,2.88-5.5,0-10.82-.75-15.96-2.24Z"/>
          <path class="cls-1" d="m209.65,38.74h16.1v56.46h34.89v13.12h-50.99V38.74h0Z"/>
          <path class="cls-1" d="m269.69,38.74h16.1v69.58h-16.1V38.74Z"/>
          <path class="cls-1" d="m342.5,41.82c4.54,2.06,8.03,4.97,10.49,8.75,2.45,3.78,3.68,8.25,3.68,13.42s-1.23,9.56-3.68,13.37c-2.45,3.81-5.95,6.73-10.49,8.75-4.54,2.02-9.89,3.03-16.05,3.03h-14.02v19.18h-16.1V38.74h30.12c6.16,0,11.51,1.03,16.05,3.08Zm-5.91,31.06c2.52-2.09,3.78-5.05,3.78-8.9s-1.26-6.91-3.78-9c-2.52-2.09-6.2-3.13-11.03-3.13h-13.12v24.15h13.12c4.84,0,8.51-1.04,11.03-3.13Z"/>
          <path class="cls-1" d="m381.56,104.5c-5.6-3.08-9.99-7.32-13.17-12.72-3.18-5.4-4.77-11.48-4.77-18.24s1.59-12.84,4.77-18.24c3.18-5.4,7.59-9.64,13.22-12.72,5.63-3.08,11.93-4.62,18.89-4.62,5.43,0,10.4.91,14.91,2.73,4.51,1.82,8.35,4.52,11.53,8.1l-6.46,6.26c-5.23-5.5-11.76-8.25-19.58-8.25-5.17,0-9.84,1.16-14.02,3.48-4.17,2.32-7.44,5.52-9.79,9.59-2.35,4.08-3.53,8.63-3.53,13.67s1.18,9.59,3.53,13.67c2.35,4.07,5.61,7.27,9.79,9.59,4.18,2.32,8.85,3.48,14.02,3.48,7.75,0,14.28-2.78,19.58-8.35l6.46,6.26c-3.18,3.58-7.04,6.3-11.58,8.15-4.54,1.85-9.53,2.78-14.96,2.78-6.96,0-13.24-1.54-18.84-4.62Z"/>
          <path class="cls-1" d="m485.78,90.93h-36.98l-7.65,17.39h-10.24l31.51-69.58h9.84l31.61,69.58h-10.44l-7.66-17.39Zm-3.48-7.95l-15.01-34.09-15.01,34.09h30.02Z"/>
          <path class="cls-1" d="m519.32,106.68c-4.87-1.62-8.7-3.73-11.48-6.31l3.68-7.75c2.65,2.38,6.05,4.32,10.19,5.81,4.14,1.49,8.4,2.24,12.77,2.24,5.77,0,10.07-.98,12.92-2.93,2.85-1.95,4.27-4.55,4.27-7.8,0-2.38-.78-4.32-2.34-5.81-1.56-1.49-3.48-2.63-5.77-3.43-2.29-.79-5.52-1.69-9.69-2.68-5.23-1.26-9.46-2.52-12.67-3.78-3.22-1.26-5.97-3.2-8.25-5.82-2.28-2.62-3.43-6.15-3.43-10.58,0-3.71.98-7.06,2.93-10.04,1.95-2.98,4.92-5.37,8.9-7.16,3.98-1.79,8.91-2.68,14.81-2.68,4.11,0,8.15.53,12.13,1.59,3.98,1.06,7.39,2.58,10.24,4.57l-3.28,7.95c-2.92-1.85-6.03-3.26-9.34-4.22-3.31-.96-6.56-1.44-9.74-1.44-5.63,0-9.86,1.03-12.67,3.08-2.82,2.06-4.22,4.71-4.22,7.95,0,2.39.8,4.32,2.39,5.82,1.59,1.49,3.56,2.65,5.91,3.48,2.35.83,5.55,1.71,9.59,2.63,5.23,1.26,9.44,2.52,12.62,3.78,3.18,1.26,5.91,3.18,8.2,5.76,2.29,2.58,3.43,6.06,3.43,10.44,0,3.65-.99,6.98-2.98,9.99-1.99,3.02-5.01,5.4-9.05,7.16s-9.01,2.63-14.91,2.63c-5.24,0-10.29-.81-15.16-2.43Z"/>
          <path class="cls-1" d="m629.8,38.74v69.58h-9.94v-31.01h-39.96v31.01h-9.94V38.74h9.94v29.92h39.96v-29.92h9.94Z"/>
        </g>
      </g>
    </g>
  </g>
</svg>