<?xml version="1.0" encoding="UTF-8"?>
<svg id="Layer_2" data-name="Layer 2" xmlns="http://www.w3.org/2000/svg" viewBox="0 0 605 605">
  <defs>
    <style>
      .cls-1 {
        fill: #80b4b1;
      }

      .cls-1, .cls-2 {
        stroke-width: 0px;
      }

      .cls-2 {
        fill: #030303;
      }
    </style>
  </defs>
  <g id="Layer_1-2" data-name="Layer 1">
    <g>
      <circle class="cls-1" cx="302.5" cy="302.5" r="302.5"/>
      <g id="Logos">
        <g>
          <path class="cls-2" d="m364.51,368.48l-197.51-109.77v-26.94c0-.15,0-.3,0-.46v-1.61c0-7.64.44-13.98,9.9-19.24h0l111.99-62.25c4.44-2.48,9.07-2.85,13.6-2.85s9.15.37,13.6,2.85l186.42,103.6v-73.81l-167.76-93.23v-38.8h-64.52v38.8l-139.35,77.43c-24.65,13.71-28.41,31.62-28.41,56.62v77.84l195.62,108.72,66.41-36.91Z"/>
          <path class="cls-2" d="m240.5,241.86l197.5,109.77v29.01c-.01,7.64-.44,13.98-9.9,19.25h0l-111.99,62.23c-4.44,2.48-9.06,2.85-13.6,2.85s-9.16-.37-13.6-2.85l-186.42-103.6v73.81l167.76,93.23v38.81h64.52v-38.81l139.34-77.43c24.66-13.7,28.41-31.62,28.41-56.62v-77.84l-195.62-108.72-66.41,36.91Z"/>
        </g>
      </g>
    </g>
  </g>
</svg>