<?xml version="1.0" encoding="UTF-8"?><svg id="Layer_2" xmlns="http://www.w3.org/2000/svg" viewBox="0 0 512 512"><defs><style>.cls-1{fill:#6aabff;}.cls-1,.cls-2{stroke-width:0px;}.cls-2{fill:#004580;}</style></defs><g id="Layer_1-2"><rect class="cls-1" width="512" height="512" rx="76.8" ry="76.8"/><path class="cls-2" d="m109.28,292.613c7.26,0,12.594-1.173,16.013-3.519,3.408-2.346,5.124-6.408,5.124-12.173s-1.715-9.816-5.124-12.173c-3.42-2.346-8.765-3.519-16.013-3.519h-30.112c-1.715,0-2.567.642-2.567,1.926v27.556c0,1.284.852,1.926,2.567,1.926h30.112v-.022Zm-30.112-73.039c-1.284,0-1.926.642-1.926,1.926v23.063c0,1.284.642,1.926,1.926,1.926h29.47c11.1,0,16.655-4.482,16.655-13.457s-5.555-13.457-16.655-13.457h-29.47Zm103.151,0c-1.284,0-1.926.642-1.926,1.926v23.063c0,1.284.642,1.926,1.926,1.926h30.112c11.1,0,16.655-4.482,16.655-13.457s-5.555-13.457-16.655-13.457h-30.112Zm-51.26,32.679c1.284.432,2.778,1.073,4.482,1.926,2.988,1.715,5.544,4.061,7.691,7.049,2.567,4.272,3.84,9.395,3.84,15.371,0,20.506-12.395,30.754-37.161,30.754h-48.04c-1.284,0-1.926-.642-1.926-1.926v-98.669c0-1.284.642-1.926,1.926-1.926h50.618c8.975,0,16.224,2.468,21.779,7.37,5.544,4.914,8.333,11.432,8.333,19.544,0,4.703-1.073,8.864-3.198,12.494-2.147,3.641-4.925,6.308-8.344,8.012Zm103.804,0c1.284.432,2.567,1.073,3.84,1.926,3.408,1.715,5.976,4.061,7.691,7.049,2.988,4.272,4.482,9.395,4.482,15.371,0,20.506-12.395,30.754-37.161,30.754h-48.051c-1.284,0-1.926-.642-1.926-1.926v-98.669c0-1.284.642-1.926,1.926-1.926h50.618c8.543,0,15.692,2.468,21.469,7.37,5.766,4.914,8.654,11.432,8.654,19.544,0,4.703-1.073,8.864-3.198,12.494-2.158,3.641-4.936,6.308-8.344,8.012Zm-21.79,40.36c7.26,0,12.594-1.173,16.013-3.519,3.408-2.346,5.124-6.408,5.124-12.173s-1.715-9.816-5.124-12.173c-3.42-2.346-8.765-3.519-16.013-3.519h-30.754c-1.284,0-1.926.642-1.926,1.926v27.556c0,1.284.642,1.926,1.926,1.926h30.754v-.022Zm129.423-86.496c.421-.852.852-1.284,1.284-1.284h16.655c.421,0,.852.221,1.284.642.421.432.421.863,0,1.284l-53.175,99.953c-.432.432-.963.642-1.605.642s-1.184-.21-1.605-.642l-53.175-99.953c-.432-.421-.542-.852-.321-1.284.21-.421.741-.642,1.605-.642h16.013c.852,0,1.494.432,1.926,1.284l33.952,64.075c0,.432.421.642,1.284.642.852,0,1.494-.21,1.926-.642l33.952-64.075Zm19.223,99.765c-.432.863-1.073,1.284-1.926,1.284h-16.655c-.432,0-.753-.21-.963-.642-.221-.421-.321-.852-.321-1.284l53.186-99.953c.421-.421,1.062-.642,1.926-.642.852,0,1.494.221,1.926.642l53.164,99.953c0,.432-.111.863-.321,1.284-.221.432-.542.642-.963.642h-16.655c-.863,0-1.505-.421-1.926-1.284l-33.321-64.075c-.432-.852-1.073-1.284-1.926-1.284-.863,0-1.505.432-1.926,1.284l-33.299,64.075Z"/></g></svg>