<svg width="18" height="20" viewBox="0 0 18 20" fill="none" xmlns="http://www.w3.org/2000/svg">
<g clip-path="url(#clip0_3590_27)">
<path d="M12.7497 18.7497C12.7497 18.9486 12.6707 19.1394 12.53 19.28C12.3894 19.4207 12.1986 19.4997 11.9997 19.4997H5.99983C5.80092 19.4997 5.61016 19.4207 5.46951 19.28C5.32886 19.1394 5.24984 18.9486 5.24984 18.7497C5.24984 18.5508 5.32886 18.36 5.46951 18.2194C5.61016 18.0787 5.80092 17.9997 5.99983 17.9997H11.9997C12.1986 17.9997 12.3894 18.0787 12.53 18.2194C12.6707 18.36 12.7497 18.5508 12.7497 18.7497ZM17.7981 15.7497C17.6679 15.979 17.479 16.1693 17.2508 16.3012C17.0225 16.433 16.7632 16.5015 16.4996 16.4997H1.4999C1.23622 16.4994 0.977297 16.4295 0.74922 16.2972C0.521142 16.1649 0.331975 15.9748 0.200785 15.746C0.0695942 15.5173 0.00101626 15.258 0.00196279 14.9944C0.00290932 14.7307 0.073347 14.4719 0.206176 14.2441C0.72648 13.3479 1.4999 10.8129 1.4999 7.49987C1.4999 5.51078 2.29007 3.60316 3.69657 2.19666C5.10306 0.790163 7.01069 0 8.99978 0C10.9889 0 12.8965 0.790163 14.303 2.19666C15.7095 3.60316 16.4996 5.51078 16.4996 7.49987C16.4996 10.812 17.274 13.3479 17.7943 14.2441C17.9285 14.4722 17.9994 14.7319 17.9999 14.9965C18.0004 15.2612 17.9304 15.5211 17.7971 15.7497H17.7981ZM16.4996 14.9997C15.775 13.7557 14.9997 10.8795 14.9997 7.49987C14.9997 5.9086 14.3675 4.3825 13.2423 3.2573C12.1171 2.1321 10.591 1.49997 8.99978 1.49997C7.4085 1.49997 5.88241 2.1321 4.75721 3.2573C3.63201 4.3825 2.99988 5.9086 2.99988 7.49987C2.99988 10.8804 2.22364 13.7566 1.4999 14.9997H16.4996Z" fill="#183028"/>
</g>
<defs>
<clipPath id="clip0_3590_27">
<rect width="18" height="19.4997" fill="white"/>
</clipPath>
</defs>
</svg>
