<svg width="18" height="13" viewBox="0 0 18 13" fill="none" xmlns="http://www.w3.org/2000/svg">
<g clip-path="url(#clip0_3603_58)">
<path d="M16.7143 0H1.28571C0.944722 0 0.617695 0.135459 0.376577 0.376577C0.135459 0.617695 0 0.944722 0 1.28571V11.5714C0 11.9124 0.135459 12.2394 0.376577 12.4806C0.617695 12.7217 0.944722 12.8571 1.28571 12.8571H16.7143C17.0553 12.8571 17.3823 12.7217 17.6234 12.4806C17.8645 12.2394 18 11.9124 18 11.5714V1.28571C18 0.944722 17.8645 0.617695 17.6234 0.376577C17.3823 0.135459 17.0553 0 16.7143 0ZM16.7143 1.28571V3.21429H1.28571V1.28571H16.7143ZM16.7143 11.5714H1.28571V4.5H16.7143V11.5714ZM15.4286 9.64286C15.4286 9.81335 15.3608 9.97687 15.2403 10.0974C15.1197 10.218 14.9562 10.2857 14.7857 10.2857H12.2143C12.0438 10.2857 11.8803 10.218 11.7597 10.0974C11.6392 9.97687 11.5714 9.81335 11.5714 9.64286C11.5714 9.47236 11.6392 9.30885 11.7597 9.18829C11.8803 9.06773 12.0438 9 12.2143 9H14.7857C14.9562 9 15.1197 9.06773 15.2403 9.18829C15.3608 9.30885 15.4286 9.47236 15.4286 9.64286ZM10.2857 9.64286C10.2857 9.81335 10.218 9.97687 10.0974 10.0974C9.97687 10.218 9.81335 10.2857 9.64286 10.2857H8.35714C8.18665 10.2857 8.02313 10.218 7.90257 10.0974C7.78202 9.97687 7.71429 9.81335 7.71429 9.64286C7.71429 9.47236 7.78202 9.30885 7.90257 9.18829C8.02313 9.06773 8.18665 9 8.35714 9H9.64286C9.81335 9 9.97687 9.06773 10.0974 9.18829C10.218 9.30885 10.2857 9.47236 10.2857 9.64286Z" fill="black"/>
</g>
<defs>
<clipPath id="clip0_3603_58">
<rect width="18" height="12.8571" fill="white"/>
</clipPath>
</defs>
</svg>
