<svg width="18" height="23" viewBox="0 0 18 23" fill="none" xmlns="http://www.w3.org/2000/svg">
<g clip-path="url(#clip0_3603_66)">
<path d="M13.0909 13.9089C13.0909 14.1259 13.0047 14.334 12.8513 14.4875C12.6978 14.6409 12.4897 14.7271 12.2727 14.7271H5.72727C5.51028 14.7271 5.30217 14.6409 5.14873 14.4875C4.99529 14.334 4.90909 14.1259 4.90909 13.9089C4.90909 13.6919 4.99529 13.4838 5.14873 13.3304C5.30217 13.177 5.51028 13.0908 5.72727 13.0908H12.2727C12.4897 13.0908 12.6978 13.177 12.8513 13.3304C13.0047 13.4838 13.0909 13.6919 13.0909 13.9089ZM12.2727 9.81803H5.72727C5.51028 9.81803 5.30217 9.90423 5.14873 10.0577C4.99529 10.2111 4.90909 10.4192 4.90909 10.6362C4.90909 10.8532 4.99529 11.0613 5.14873 11.2148C5.30217 11.3682 5.51028 11.4544 5.72727 11.4544H12.2727C12.4897 11.4544 12.6978 11.3682 12.8513 11.2148C13.0047 11.0613 13.0909 10.8532 13.0909 10.6362C13.0909 10.4192 13.0047 10.2111 12.8513 10.0577C12.6978 9.90423 12.4897 9.81803 12.2727 9.81803ZM18 3.27258V20.4544C18 20.8884 17.8276 21.3046 17.5207 21.6115C17.2138 21.9184 16.7976 22.0908 16.3636 22.0908H1.63636C1.20237 22.0908 0.786157 21.9184 0.47928 21.6115C0.172402 21.3046 0 20.8884 0 20.4544V3.27258C0 2.83859 0.172402 2.42237 0.47928 2.1155C0.786157 1.80862 1.20237 1.63622 1.63636 1.63622H5.34477C5.80449 1.1215 6.36774 0.709683 6.99763 0.427718C7.62753 0.145753 8.30987 0 9 0C9.69013 0 10.3725 0.145753 11.0024 0.427718C11.6323 0.709683 12.1955 1.1215 12.6552 1.63622H16.3636C16.7976 1.63622 17.2138 1.80862 17.5207 2.1155C17.8276 2.42237 18 2.83859 18 3.27258ZM5.72727 4.90894H12.2727C12.2727 4.04096 11.9279 3.20853 11.3142 2.59478C10.7004 1.98102 9.86798 1.63622 9 1.63622C8.13202 1.63622 7.29959 1.98102 6.68583 2.59478C6.07208 3.20853 5.72727 4.04096 5.72727 4.90894ZM16.3636 3.27258H13.6278C13.814 3.79807 13.9091 4.35146 13.9091 4.90894V5.72712C13.9091 5.94412 13.8229 6.15223 13.6695 6.30567C13.516 6.45911 13.3079 6.54531 13.0909 6.54531H4.90909C4.6921 6.54531 4.48399 6.45911 4.33055 6.30567C4.17711 6.15223 4.09091 5.94412 4.09091 5.72712V4.90894C4.09093 4.35146 4.18604 3.79807 4.37216 3.27258H1.63636V20.4544H16.3636V3.27258Z" fill="black"/>
</g>
<defs>
<clipPath id="clip0_3603_66">
<rect width="18" height="22.0909" fill="white"/>
</clipPath>
</defs>
</svg>
