<svg width="18" height="18" viewBox="0 0 18 18" fill="none" xmlns="http://www.w3.org/2000/svg">
<g clip-path="url(#clip0_3603_64)">
<path d="M4.71937 8.03063C4.61437 7.92573 4.54284 7.79204 4.51385 7.64648C4.48487 7.50092 4.49972 7.35002 4.55653 7.21291C4.61335 7.07579 4.70957 6.95861 4.83301 6.87621C4.95646 6.79381 5.10158 6.74988 5.25 6.75H8.25V0.75C8.25 0.551088 8.32902 0.360322 8.46967 0.21967C8.61032 0.0790178 8.80109 0 9 0C9.19891 0 9.38968 0.0790178 9.53033 0.21967C9.67098 0.360322 9.75 0.551088 9.75 0.75V6.75H12.75C12.8984 6.74988 13.0435 6.79381 13.167 6.87621C13.2904 6.95861 13.3867 7.07579 13.4435 7.21291C13.5003 7.35002 13.5151 7.50092 13.4861 7.64648C13.4572 7.79204 13.3856 7.92573 13.2806 8.03063L9.53063 11.7806C9.46097 11.8504 9.37825 11.9057 9.28721 11.9434C9.19616 11.9812 9.09856 12.0006 9 12.0006C8.90144 12.0006 8.80384 11.9812 8.71279 11.9434C8.62175 11.9057 8.53903 11.8504 8.46937 11.7806L4.71937 8.03063ZM17.25 10.5C17.0511 10.5 16.8603 10.579 16.7197 10.7197C16.579 10.8603 16.5 11.0511 16.5 11.25V16.5H1.5V11.25C1.5 11.0511 1.42098 10.8603 1.28033 10.7197C1.13968 10.579 0.948912 10.5 0.75 10.5C0.551088 10.5 0.360322 10.579 0.21967 10.7197C0.0790178 10.8603 0 11.0511 0 11.25V16.5C0 16.8978 0.158035 17.2794 0.43934 17.5607C0.720644 17.842 1.10218 18 1.5 18H16.5C16.8978 18 17.2794 17.842 17.5607 17.5607C17.842 17.2794 18 16.8978 18 16.5V11.25C18 11.0511 17.921 10.8603 17.7803 10.7197C17.6397 10.579 17.4489 10.5 17.25 10.5Z" fill="black"/>
</g>
<defs>
<clipPath id="clip0_3603_64">
<rect width="18" height="18" fill="white"/>
</clipPath>
</defs>
</svg>
