<?xml version="1.0" encoding="UTF-8"?><svg id="Layer_2" xmlns="http://www.w3.org/2000/svg" viewBox="0 0 700 700"><defs><style>.cls-1,.cls-2{stroke-width:0px;}.cls-2{fill:#fff;}</style></defs><g id="Camada_1"><path class="cls-1" d="m100,0h500c55,0,100,45,100,100v500c0,55-45,100-100,100H100c-55,0-100-45-100-100V100C0,45,45,0,100,0Z"/><path class="cls-2" d="m130.937,175.796l-45.729-38.325c7.951-3.524,16.564-5.305,25.26-5.226h479.065c8.696-.079,17.309,1.703,25.26,5.226l-45.729,38.325-209.7,175.947c-4.401,5.412-12.355,6.232-17.767,1.831-.671-.546-1.285-1.159-1.831-1.831l-208.829-175.947Zm516.084-8.493l-35.712,30.268-223.201,186.835c-10.189,9.808-23.748,15.341-37.89,15.461-14.632-.227-28.635-5.984-39.196-16.114L88.692,197.572l-35.712-30.268c-5.025,9.306-7.715,19.693-7.839,30.268v304.859c0,36.079,29.248,65.327,65.327,65.327h479.065c36.079,0,65.327-29.248,65.327-65.327V197.572c-.124-10.575-2.815-20.962-7.839-30.268Z"/></g></svg>