<svg width="25" height="19" viewBox="0 0 25 19" fill="none" xmlns="http://www.w3.org/2000/svg">
<g clip-path="url(#clip0_1445_47)">
<path d="M4.6875 0.90625L20.3125 18.0938" stroke="#F0F1F1" stroke-width="1.5" stroke-linecap="round" stroke-linejoin="round"/>
<path d="M15.1265 12.3906C14.4097 13.0473 13.4718 13.4099 12.4996 13.4063C11.7112 13.4062 10.9412 13.1675 10.291 12.7217C9.64075 12.2758 9.14065 11.6436 8.85642 10.9082C8.57219 10.1728 8.51715 9.36863 8.69852 8.60136C8.8799 7.83409 9.2892 7.13967 9.87263 6.60938" stroke="#F0F1F1" stroke-width="1.5" stroke-linecap="round" stroke-linejoin="round"/>
<path d="M7.22656 3.69922C3.24219 5.71094 1.5625 9.5 1.5625 9.5C1.5625 9.5 4.6875 16.5312 12.5 16.5312C14.3306 16.5462 16.1384 16.1243 17.7734 15.3008" stroke="#F0F1F1" stroke-width="1.5" stroke-linecap="round" stroke-linejoin="round"/>
<path d="M20.3711 13.5137C22.5 11.6094 23.4375 9.50002 23.4375 9.50002C23.4375 9.50002 20.3125 2.46877 12.5 2.46877C11.8227 2.46744 11.1465 2.52297 10.4785 2.63479" stroke="#F0F1F1" stroke-width="1.5" stroke-linecap="round" stroke-linejoin="round"/>
<path d="M13.2324 5.66211C14.0631 5.81951 14.8201 6.24284 15.3891 6.86821C15.9581 7.49358 16.3083 8.28706 16.3867 9.12891" stroke="#F0F1F1" stroke-width="1.5" stroke-linecap="round" stroke-linejoin="round"/>
</g>
<defs>
<clipPath id="clip0_1445_47">
<rect width="25" height="19" fill="white"/>
</clipPath>
</defs>
</svg>
