<?xml version="1.0" encoding="UTF-8"?><svg id="Layer_2" xmlns="http://www.w3.org/2000/svg" viewBox="0 0 700 700"><defs><style>.cls-1{fill:#2e86ff;}.cls-1,.cls-2{stroke-width:0px;}.cls-2{fill:#fff;}</style></defs><g id="Camada_1"><path class="cls-1" d="m100,0h500c55,0,100,45,100,100v500c0,55-45,100-100,100H100c-55,0-100-45-100-100V100C0,45,45,0,100,0Z"/><path class="cls-2" d="m481.568,380.225l16.002-99.565h-94.231v-69.34c0-28.447,10.668-49.783,53.339-49.783h46.227v-90.675c-24.891-3.556-53.339-7.112-78.23-7.112-81.786,0-138.68,49.783-138.68,138.68v78.23h-88.898v99.565h88.898v250.691c19.557,3.556,39.115,5.334,58.672,5.334s39.115-1.778,58.672-5.334v-250.691h78.23Z"/></g></svg>