<?xml version="1.0" encoding="UTF-8"?><svg id="Layer_2" xmlns="http://www.w3.org/2000/svg" viewBox="0 0 512 512"><defs><style>.cls-1{fill:#34a853;}.cls-1,.cls-2,.cls-3,.cls-4{fill-rule:evenodd;}.cls-1,.cls-2,.cls-3,.cls-4,.cls-5{stroke-width:0px;}.cls-2{fill:#4285f4;}.cls-3{fill:#fbbc05;}.cls-4{fill:#eb4335;}.cls-5{fill:#a2ff73;}</style></defs><g id="Layer_1-2"><rect class="cls-5" width="512" height="512" rx="76.8" ry="76.8"/><g id="Icons"><g id="Color-"><g id="Google"><path id="Fill-1" class="cls-3" d="m131.019,256c0-14.268,2.37-27.946,6.599-40.776l-74.029-56.531c-14.428,29.294-22.557,62.302-22.557,97.307s8.119,67.963,22.527,97.237l73.989-56.641c-4.189-12.77-6.529-26.398-6.529-40.596"/><path id="Fill-2" class="cls-4" d="m260.999,126.204c30.995,0,58.991,10.983,80.988,28.954l63.99-63.899c-38.994-33.947-88.986-54.914-144.978-54.914-86.927,0-161.635,49.712-197.41,122.347l74.029,56.531c17.057-51.778,65.68-89.02,123.381-89.02"/><path id="Fill-3" class="cls-1" d="m260.999,385.796c-57.701,0-106.324-37.241-123.381-89.02l-74.029,56.521c35.774,72.646,110.483,122.357,197.41,122.357,53.652,0,104.874-19.05,143.318-54.744l-70.269-54.324c-19.827,12.49-44.793,19.21-73.049,19.21"/><path id="Fill-4" class="cls-2" d="m470.967,256c0-12.98-2-26.958-4.999-39.937h-204.968v84.866h117.982c-5.899,28.934-21.957,51.179-44.933,65.657l70.269,54.324c40.384-37.481,66.65-93.313,66.65-164.91"/></g></g></g></g></svg>