<svg width="24" height="24" viewBox="0 0 24 24" fill="none" xmlns="http://www.w3.org/2000/svg">
<g clip-path="url(#clip0_1257_14)">
<path d="M23.477 12.2864C23.477 11.4777 23.3987 10.643 23.2683 9.86035H11.9727V14.4777H18.4422C18.1814 15.9647 17.3205 17.269 16.0422 18.1038L19.9031 21.1038C22.1727 18.9908 23.477 15.9125 23.477 12.2864Z" fill="#4280EF"/>
<path d="M11.973 23.9735C15.2078 23.9735 17.9208 22.9039 19.9034 21.0778L16.0426 18.1039C14.973 18.8343 13.5904 19.2517 11.973 19.2517C8.84256 19.2517 6.20778 17.1387 5.24256 14.3213L1.27734 17.3735C3.31213 21.4169 7.43387 23.9735 11.973 23.9735Z" fill="#34A353"/>
<path d="M5.24282 14.2955C4.74716 12.8086 4.74716 11.1912 5.24282 9.70424L1.2776 6.62598C-0.418054 10.0173 -0.418054 14.0086 1.2776 17.3738L5.24282 14.2955Z" fill="#F6B704"/>
<path d="M11.973 4.77367C13.6686 4.74758 15.3382 5.39976 16.5643 6.57367L19.9817 3.13019C17.8165 1.09541 14.9469 -0.000241039 11.973 0.0258459C7.43387 0.0258459 3.31213 2.58237 1.27734 6.62585L5.24256 9.70411C6.20778 6.86063 8.84256 4.77367 11.973 4.77367Z" fill="#E54335"/>
</g>
<defs>
<clipPath id="clip0_1257_14">
<rect width="24" height="24" fill="white"/>
</clipPath>
</defs>
</svg>
