<?xml version="1.0" encoding="UTF-8"?><svg id="Layer_2" xmlns="http://www.w3.org/2000/svg" viewBox="0 0 700 700"><defs><style>.cls-1,.cls-2{stroke-width:0px;}.cls-2{fill:#fff;}</style></defs><g id="Camada_1"><path class="cls-1" d="m100,0h500c55,0,100,45,100,100v500c0,55-45,100-100,100H100c-55,0-100-45-100-100V100C0,45,45,0,100,0Z"/><path class="cls-2" d="m568.615,99.297c-5.308-10.743-16.946-16.69-28.584-16.754H104.235c-9.272,0-18.736,3.389-24.683,10.743-5.308,6.523-7.865,13.94-7.865,22.317v395.574c0,5.819-.064,11.638,0,17.457.064,5.052,1.279,10.104,3.581,14.644,0,.064.064.128.128.192,4.54,8.697,12.917,14.964,22.957,16.626,2.302.32,4.54.448,6.842.448h299.398c-7.226-1.471-14.004-4.668-19.568-9.336-7.098-5.883-11.958-13.876-14.068-22.637H103.66v-77.887c19.887-19.696,39.839-39.455,59.726-59.151,6.011,5.947,11.958,11.894,17.969,17.841,15.539,15.475,31.078,30.886,46.617,46.297,3.581,3.517,7.098,7.098,10.679,10.615,6.139,6.075,16.434,6.139,22.637,0,7.098-7.098,14.26-14.196,21.358-21.294,17.138-17.01,34.211-34.084,51.349-51.093,20.719-20.591,41.437-41.246,62.156-61.836,17.905-17.841,35.81-35.618,53.715-53.459,5.052-4.988,10.231-9.976,15.283-14.963,6.523,6.395,12.981,12.853,19.504,19.248,16.37,16.178,32.677,32.357,49.047,48.535,2.238,2.174,4.412,4.412,6.65,6.586v25.003c2.43,1.79,4.668,3.773,6.714,6.011h0c4.86,5.435,9.4,10.871,13.749,16.115,2.11,2.558,4.093,4.988,6.139,7.354,1.79,2.11,3.517,4.157,5.308,6.267V123.981c0-8.633.384-16.498-3.645-24.683Zm-310.653,110.564c-.256,20.143-14.644,38.304-34.659,42.141-17.649,3.389-35.874-4.604-45.21-20.015-9.336-15.475-7.738-35.554,3.645-49.495,11.319-13.876,30.95-19.376,47.832-13.173,16.946,6.203,28.2,22.381,28.456,40.414v.128h-.064Z"/><path class="cls-2" d="m625.272,526.589c-1.982,2.046-4.796,2.814-7.546,3.005h-44.827v55.761c0,7.034.32,14.196,0,21.23-.128,2.174-.576,3.837-1.279,5.244-.128.192-.192.384-.32.576-.128.192-.256.384-.384.512-.128.192-.256.32-.384.512h0c-.128.192-.256.32-.448.448-.448.448-.895.831-1.407,1.151-.32.256-.703.448-1.087.639-.576.256-1.151.512-1.79.703-.384.128-.831.256-1.279.384-2.366.576-5.052.703-7.674.703-2.302,0-4.604-.128-6.714-.128h-68.167c-1.279,0-2.622.064-3.965.064-.639,0-1.279,0-1.982-.064-6.075-.384-10.359-4.732-10.743-10.807-.064-.703,0-1.471,0-2.238v-74.818h-51.477c-1.79,0-3.517-.32-5.052-.895-4.029-1.535-7.034-4.988-7.034-9.912,0-4.604,3.709-8.121,6.523-11.446,20.463-24.172,40.926-48.408,61.389-72.579,9.912-11.702,19.76-23.404,29.671-35.107,2.43-2.878,4.924-5.819,7.354-8.697.128-.192.256-.32.448-.512.128-.192.32-.32.448-.448l.448-.448c.32-.256.639-.512.959-.767s.703-.448,1.023-.639c.384-.192.703-.384,1.087-.512.384-.128.767-.256,1.151-.384.576-.192,1.151-.256,1.727-.32.384-.064.767-.064,1.151-.064,1.087,0,2.238.192,3.261.512.384.128.703.256,1.087.384,1.407.576,2.686,1.535,3.773,2.75,5.819,6.459,11.382,13.301,16.946,20.015.767.895,1.471,1.79,2.238,2.686,9.912,11.702,19.823,23.404,29.735,35.171,1.727,2.046,3.453,4.093,5.18,6.139,15.795,18.672,31.59,37.345,47.384,56.017.959.703,1.663,1.599,2.174,2.75,2.174,4.86,2.174,9.592-1.599,13.429Z"/></g></svg>