<?xml version="1.0" encoding="UTF-8"?><svg id="Layer_2" xmlns="http://www.w3.org/2000/svg" viewBox="0 0 700 700"><defs><style>.cls-1{fill:#fff;fill-rule:evenodd;}.cls-1,.cls-2{stroke-width:0px;}</style></defs><g id="Camada_1"><path class="cls-2" d="m100,0h500c55,0,100,45,100,100v500c0,55-45,100-100,100H100c-55,0-100-45-100-100V100C0,45,45,0,100,0Z"/><path class="cls-1" d="m349,44c122.897,0,221.214,98.317,221.214,221.214,0,51.207-16.386,98.317-47.11,135.186l-174.103,237.6-174.103-237.6c-28.676-36.869-47.11-83.979-47.11-135.186,0-122.897,98.317-221.214,221.214-221.214Zm0,94.221c69.641,0,126.993,57.352,126.993,126.993s-57.352,126.993-126.993,126.993-126.993-57.352-126.993-126.993,57.352-126.993,126.993-126.993Z"/></g></svg>