<svg width="20" height="23" viewBox="0 0 20 23" fill="none" xmlns="http://www.w3.org/2000/svg">
<g clip-path="url(#clip0_1445_38)">
<path d="M18.333 8.33301H1.66634C1.2061 8.33301 0.833008 8.7061 0.833008 9.16634V20.833C0.833008 21.2932 1.2061 21.6663 1.66634 21.6663H18.333C18.7932 21.6663 19.1663 21.2932 19.1663 20.833V9.16634C19.1663 8.7061 18.7932 8.33301 18.333 8.33301Z" stroke="#F0F1F1" stroke-width="1.5" stroke-linecap="round" stroke-linejoin="round"/>
<path d="M6.25 8.33301V4.58301C6.25 3.58845 6.64509 2.63462 7.34835 1.93136C8.05161 1.2281 9.00544 0.833008 10 0.833008C10.9946 0.833008 11.9484 1.2281 12.6516 1.93136C13.3549 2.63462 13.75 3.58845 13.75 4.58301V8.33301" stroke="#F0F1F1" stroke-width="1.5" stroke-linecap="round" stroke-linejoin="round"/>
<path d="M10 16.25C10.6904 16.25 11.25 15.6904 11.25 15C11.25 14.3096 10.6904 13.75 10 13.75C9.30964 13.75 8.75 14.3096 8.75 15C8.75 15.6904 9.30964 16.25 10 16.25Z" fill="#F0F1F1"/>
</g>
<defs>
<clipPath id="clip0_1445_38">
<rect width="20" height="22.5" fill="white"/>
</clipPath>
</defs>
</svg>
