<?xml version="1.0" encoding="UTF-8"?><svg id="Layer_2" xmlns="http://www.w3.org/2000/svg" viewBox="0 0 512 512"><defs><style>.cls-1{fill:#0a0080;}.cls-1,.cls-2,.cls-3,.cls-4{stroke-width:0px;}.cls-2{fill:#fff;}.cls-3{fill:#00abff;}.cls-4{fill:#00bcff;}</style></defs><g id="Layer_1-2"><rect class="cls-3" width="512" height="512" rx="76.8" ry="76.8"/><path class="cls-4" d="m107.029,198.99c-46.361,0-83.965,24.079-83.965,53.709s37.604,56.055,83.965,56.055,83.965-26.347,83.965-56.055-37.604-53.709-83.965-53.709Z"/><path class="cls-2" d="m79.666,236.125c-.078.078-.86.938-.313,1.642,1.329,1.642,5.316,2.58,9.382,1.72,2.424-.547,5.473-2.971,8.522-5.394,3.284-2.58,6.489-5.16,9.694-6.176,3.44-1.095,5.629-.625,7.114-.156,1.564.469,3.44,1.564,6.489,3.753,5.629,4.222,28.223,24.001,32.21,27.363,3.127-1.407,18.138-7.505,37.135-11.649-1.642-10.163-7.74-19.779-17.121-27.363-13.056,5.473-30.021,8.756-45.657,1.173-.078,0-8.522-3.987-16.809-3.831-12.352.313-17.747,5.629-23.376,11.336l-7.271,7.583h0Z"/><path class="cls-2" d="m151.747,260.986c-.235-.235-26.581-23.298-32.601-27.754-3.44-2.58-5.394-3.284-7.427-3.518-1.016-.156-2.502.078-3.518.313-2.814.782-6.411,3.205-9.616,5.707-3.362,2.658-6.489,5.16-9.382,5.785-3.753.86-8.287-.156-10.398-1.564-.86-.547-1.407-1.251-1.72-1.876-.782-1.798.625-3.205.86-3.44l7.271-7.896c.86-.86,1.72-1.72,2.58-2.502-2.345.313-4.534.938-6.645,1.485-2.658.704-5.16,1.407-7.74,1.407-1.095,0-6.802-.938-7.896-1.251-6.567-1.798-14.072-3.518-22.672-7.583-10.32,7.662-17.043,17.121-19.076,27.754,1.485.391,5.394,1.251,6.411,1.485,23.376,5.238,30.646,10.554,31.976,11.649,1.407-1.564,3.518-2.58,5.785-2.58,2.58,0,4.925,1.329,6.333,3.284,1.329-1.095,3.205-1.954,5.551-1.954,1.095,0,2.189.235,3.362.547,2.658.938,3.987,2.658,4.691,4.222.86-.391,1.954-.704,3.284-.704,1.251,0,2.58.313,3.909.86,4.3,1.876,5.004,6.098,4.613,9.303.313,0,.625-.078.938-.078,5.082,0,9.303,4.144,9.303,9.303,0,1.564-.391,3.049-1.095,4.378,1.407.782,4.925,2.58,8.053,2.189,2.502-.313,3.44-1.173,3.753-1.642.235-.313.469-.704.235-1.016l-6.567-7.349s-1.095-1.016-.704-1.407,1.016.156,1.485.547c3.362,2.814,7.427,7.036,7.427,7.036.078.078.313.547,1.876.86,1.329.235,3.596.078,5.238-1.251.391-.313.782-.782,1.173-1.173l-.078.078c1.72-2.189-.156-4.378-.156-4.378l-7.74-8.678s-1.095-1.016-.704-1.407c.313-.391,1.016.156,1.564.547,2.424,2.033,5.863,5.473,9.225,8.756.625.469,3.518,2.267,7.427-.235,2.345-1.564,2.814-3.44,2.736-4.847-.156-1.876-1.642-3.205-1.642-3.205l-10.554-10.554s-1.095-.938-.704-1.407c.313-.391,1.016.156,1.485.547,3.362,2.814,12.431,11.102,12.431,11.102.156.078,3.284,2.345,7.114-.156,1.407-.86,2.267-2.189,2.345-3.753.078-2.424-1.798-3.987-1.798-3.987h0Z"/><path class="cls-2" d="m100.696,274.355c-1.642,0-3.44.938-3.674.782-.156-.078.078-.704.235-1.095.156-.391,2.267-6.802-2.893-9.069-3.987-1.72-6.489.235-7.271,1.095-.235.235-.313.235-.313-.078-.078-1.173-.625-4.3-4.065-5.394-4.925-1.485-8.131,1.954-8.912,3.205-.391-2.814-2.736-5.003-5.629-5.003-3.205,0-5.707,2.58-5.785,5.707,0,3.205,2.58,5.707,5.707,5.707,1.564,0,2.971-.625,3.987-1.564,0,0,.078.078,0,.156-.235,1.407-.704,6.567,4.691,8.678,2.189.86,3.987.235,5.551-.86.469-.313.547-.156.469.235-.235,1.329.078,4.144,4.065,5.785,3.049,1.251,4.847,0,6.02-1.095.547-.469.625-.391.704.313.156,3.831,3.362,6.88,7.193,6.88,3.987,0,7.193-3.205,7.193-7.193-.078-3.909-3.284-7.114-7.271-7.192h0Z"/><path class="cls-1" d="m107.029,196.801c-47.221,0-85.529,25.096-85.529,55.977v3.284c0,32.679,33.461,59.182,85.529,59.182s85.529-26.503,85.529-59.182v-3.284c0-30.881-38.308-55.977-85.529-55.977h0Zm81.62,49.722c-18.607,4.144-32.445,10.163-35.963,11.649-8.131-7.114-26.894-23.376-31.976-27.207-2.893-2.189-4.847-3.362-6.645-3.831-.782-.235-1.876-.469-3.284-.469-1.329,0-2.658.235-4.144.704-3.284,1.016-6.567,3.674-9.694,6.176v.078c-2.971,2.345-6.02,4.769-8.287,5.316-1.016.235-2.033.313-3.049.313-2.58,0-4.925-.782-5.785-1.876-.156-.156-.078-.469.313-.938l.078-.078,7.114-7.662c5.629-5.629,10.867-10.867,23.063-11.18h.625c7.583,0,15.167,3.362,15.949,3.753,7.114,3.44,14.385,5.238,21.812,5.238,7.662,0,15.558-1.876,23.845-5.707,8.522,7.349,14.307,16.183,16.027,25.721h0Zm-81.62-46.439c25.096,0,47.533,7.193,62.622,18.529-7.271,3.127-14.229,4.769-20.952,4.769-6.88,0-13.76-1.642-20.405-4.925-.313-.156-8.678-4.144-17.434-4.144h-.704c-10.242.235-15.949,3.831-19.858,7.036-3.753.078-7.036,1.016-9.929,1.798-2.58.704-4.769,1.329-6.958,1.329-.86,0-2.502-.078-2.658-.078-2.502-.078-15.011-3.127-25.018-6.88,15.167-10.711,36.979-17.434,61.293-17.434h0Zm-64.107,19.623c10.398,4.3,23.063,7.583,27.128,7.818,1.095.078,2.267.235,3.518.235,2.658,0,5.316-.782,7.896-1.485,1.485-.391,3.205-.86,4.925-1.251-.469.469-.938.938-1.407,1.407l-7.271,7.818c-.547.547-1.798,2.111-1.016,3.987.313.782,1.016,1.485,1.876,2.111,1.72,1.173,4.847,1.954,7.662,1.954,1.095,0,2.111-.078,3.049-.313,3.049-.704,6.254-3.205,9.616-5.942,2.658-2.111,6.489-4.847,9.46-5.629.86-.235,1.798-.391,2.658-.391.235,0,.469,0,.704.078,1.954.235,3.831.938,7.114,3.44,5.942,4.456,32.288,27.519,32.523,27.754,0,0,1.72,1.485,1.564,3.909-.078,1.329-.782,2.502-2.111,3.362-1.095.704-2.267,1.095-3.44,1.095-1.798,0-2.971-.86-3.049-.86-.078-.078-9.147-8.365-12.431-11.18-.547-.469-1.016-.86-1.564-.86-.313,0-.547.156-.704.313-.547.625.078,1.564.782,2.111l10.554,10.632s1.329,1.251,1.485,2.893c.078,1.72-.782,3.205-2.502,4.378-1.251.86-2.502,1.251-3.753,1.251-1.642,0-2.736-.704-2.971-.938l-1.485-1.485c-2.736-2.736-5.629-5.551-7.74-7.271-.547-.391-1.016-.782-1.564-.782-.235,0-.469.078-.704.313-.235.235-.391.704.156,1.564.235.313.547.625.547.625l7.662,8.678c.078.078,1.564,1.876.156,3.674l-.313.313c-.235.235-.469.469-.704.704-1.329,1.095-3.049,1.173-3.753,1.173-.391,0-.704,0-1.016-.078-.782-.156-1.251-.313-1.485-.625l-.078-.078c-.391-.469-4.3-4.378-7.505-7.036-.391-.391-.938-.782-1.485-.782-.235,0-.469.078-.704.313-.625.704.313,1.72.704,2.111l6.567,7.271c0,.078-.078.235-.235.469-.235.313-1.016,1.095-3.44,1.407-.313,0-.547.078-.86.078-2.424,0-5.082-1.173-6.411-1.876.625-1.329.938-2.736.938-4.144,0-5.394-4.378-9.772-9.772-9.772h-.313c.156-2.502-.156-7.114-5.004-9.225-1.407-.625-2.736-.938-4.065-.938-1.016,0-2.033.156-2.971.547-1.016-1.954-2.658-3.362-4.769-4.065-1.173-.391-2.345-.625-3.518-.625-2.033,0-3.831.625-5.473,1.72-1.564-1.954-3.909-3.127-6.411-3.127-2.189,0-4.3.86-5.863,2.424-2.033-1.564-10.163-6.723-31.819-11.649-1.016-.235-3.362-.938-4.847-1.329,1.876-9.929,8.052-18.841,17.278-26.19h0Zm40.184,56.524l-.235-.235h-.235c-.156,0-.391.078-.625.235-1.095.782-2.189,1.173-3.205,1.173-.625,0-1.173-.156-1.798-.313-5.004-1.954-4.613-6.723-4.378-8.131,0-.313,0-.547-.235-.704l-.391-.313-.313.313c-1.016.938-2.267,1.485-3.596,1.485-2.893,0-5.238-2.345-5.238-5.238s2.345-5.238,5.238-5.238c2.58,0,4.847,1.954,5.16,4.534l.156,1.407.782-1.173c.078-.156,2.189-3.362,6.098-3.362.704,0,1.485.156,2.267.391,3.127.938,3.596,3.753,3.674,4.925.078.704.547.704.625.704.235,0,.469-.156.625-.313.547-.625,1.876-1.642,3.831-1.642.938,0,1.876.235,2.893.625,4.925,2.111,2.658,8.365,2.658,8.443-.391,1.016-.469,1.485-.078,1.72l.156.078h.156c.235,0,.469-.078.938-.235.704-.235,1.642-.547,2.658-.547h0c3.674.078,6.723,3.049,6.723,6.723s-3.049,6.723-6.723,6.723c-3.596,0-6.567-2.814-6.723-6.411,0-.313-.078-1.095-.704-1.095-.313,0-.547.156-.782.391-.782.704-1.798,1.485-3.284,1.485-.704,0-1.407-.156-2.189-.469-3.831-1.564-3.909-4.144-3.753-5.238,0-.234.078-.469-.156-.704h0Zm23.923,29.083c-45.422,0-82.245-23.532-82.245-52.615,0-1.173.078-2.345.235-3.518.391.078,3.987.938,4.691,1.095,22.125,4.925,29.474,10.007,30.725,11.023-.391,1.016-.625,2.111-.625,3.205,0,4.613,3.753,8.287,8.287,8.287.547,0,1.016-.078,1.564-.156.704,3.362,2.893,5.942,6.254,7.271,1.016.391,1.954.547,2.971.547.625,0,1.251-.078,1.876-.235.625,1.564,2.033,3.518,5.16,4.847,1.095.469,2.189.704,3.284.704.86,0,1.72-.156,2.502-.469,1.485,3.674,5.082,6.098,9.069,6.098,2.658,0,5.16-1.095,7.036-2.971,1.564.86,4.925,2.502,8.287,2.502.469,0,.86,0,1.251-.078,3.362-.391,4.925-1.72,5.629-2.736.156-.156.235-.391.313-.547.782.235,1.642.391,2.658.391,1.798,0,3.596-.625,5.394-1.876,1.72-1.251,2.971-3.049,3.127-4.613v-.078c.625.156,1.173.156,1.798.156,1.876,0,3.753-.547,5.473-1.72,3.44-2.267,3.987-5.16,3.987-7.036.625.156,1.173.156,1.798.156,1.798,0,3.518-.547,5.16-1.564,2.111-1.329,3.362-3.44,3.596-5.863.156-1.642-.313-3.284-1.173-4.691,5.707-2.424,18.763-7.193,34.086-10.711.078.86.078,1.72.078,2.658,0,29.005-36.823,52.537-82.245,52.537h0Z"/><path class="cls-1" d="m485.809,214c-3.127-3.909-7.818-5.863-14.151-5.863s-11.023,1.954-14.151,5.863-4.691,8.522-4.691,13.76c0,5.316,1.564,10.007,4.691,13.838,3.127,3.831,7.818,5.785,14.151,5.785s11.023-1.954,14.151-5.785,4.691-8.443,4.691-13.838-1.564-9.851-4.691-13.76Zm-7.662,22.359c-1.485,2.033-3.674,2.971-6.489,2.971s-5.004-1.016-6.489-2.971c-1.485-2.033-2.267-4.847-2.267-8.522s.782-6.489,2.267-8.522c1.485-1.954,3.674-2.971,6.489-2.971s5.004,1.016,6.489,2.971c1.485,1.954,2.267,4.847,2.267,8.522s-.782,6.489-2.267,8.522h0Zm-71.691-25.643c-3.127-1.564-6.723-2.424-10.789-2.424-6.254,0-10.632,1.642-13.212,4.847-1.642,2.111-2.502,4.769-2.736,7.974h9.303c.235-1.407.704-2.58,1.407-3.362.938-1.095,2.58-1.72,4.925-1.72,2.033,0,3.596.313,4.691.86s1.564,1.642,1.564,3.127c0,1.251-.704,2.189-2.111,2.736-.782.313-2.033.625-3.831.86l-3.284.391c-3.753.469-6.567,1.251-8.522,2.345-3.518,2.033-5.316,5.316-5.316,9.851,0,3.518,1.095,6.176,3.284,8.131,2.189,1.876,5.003,2.736,8.365,2.893,21.109.938,20.874-11.102,21.03-13.603v-13.838c-.078-4.378-1.642-7.427-4.769-9.069h0Zm-4.925,21.03c-.078,3.205-1.016,5.473-2.736,6.645-1.798,1.251-3.753,1.798-5.863,1.798-1.329,0-2.502-.391-3.362-1.095-.938-.704-1.407-1.954-1.407-3.596,0-1.876.782-3.205,2.267-4.065.938-.547,2.345-.938,4.456-1.329l2.189-.391c1.095-.235,1.954-.469,2.58-.704s1.251-.547,1.876-.938v3.674h0Zm-43.155-15.167c2.424,0,4.144.782,5.316,2.267.782,1.095,1.251,2.345,1.485,3.753h10.398c-.547-5.238-2.424-8.912-5.473-10.945-3.127-2.033-7.114-3.127-11.961-3.127-5.707,0-10.242,1.72-13.447,5.238-3.284,3.518-4.847,8.443-4.847,14.776,0,5.551,1.485,10.163,4.456,13.681,2.971,3.518,7.505,5.238,13.76,5.238s10.945-2.111,14.151-6.333c2.033-2.58,3.127-5.394,3.362-8.287h-10.476c-.235,1.954-.782,3.518-1.798,4.769-1.016,1.173-2.658,1.798-5.082,1.798-3.362,0-5.629-1.564-6.88-4.613-.704-1.642-1.016-3.831-1.016-6.489s.313-5.082,1.016-6.802c1.251-3.284,3.596-4.925,7.036-4.925h0Zm-21.421-8.131c-21.343,0-20.092,18.919-20.092,18.919v19.232h9.694v-17.981c0-2.971.391-5.16,1.095-6.567,1.329-2.502,3.909-3.753,7.818-3.753.313,0,.704,0,1.173.078.469,0,1.016.078,1.642.156v-9.851c-.391,0-.704-.078-.86-.078-.156-.156-.313-.156-.469-.156h0Zm-27.832,7.193c-1.642-2.502-3.831-4.3-6.333-5.473-2.58-1.173-5.473-1.72-8.678-1.72-5.394,0-9.772,1.72-13.134,5.082-3.362,3.44-5.082,8.287-5.082,14.698,0,6.802,1.876,11.727,5.629,14.776,3.753,3.049,8.052,4.534,12.978,4.534,5.942,0,10.554-1.798,13.838-5.394,1.798-1.876,2.893-3.753,3.362-5.551h-10.32c-.391.547-.86,1.095-1.329,1.485-1.407,1.095-3.205,1.485-5.394,1.485-2.033,0-3.674-.313-5.16-1.251-2.424-1.485-3.753-3.987-3.909-7.662h26.816c0-3.205-.078-5.629-.313-7.349-.469-2.971-1.485-5.473-2.971-7.662h0Zm-23.376,8.522c.313-2.424,1.173-4.3,2.58-5.707,1.329-1.407,3.284-2.111,5.785-2.111,2.267,0,4.144.625,5.707,1.954s2.345,3.284,2.58,5.785h-16.652v.078Zm-29.161-15.87c-4.534,0-8.365,1.954-11.023,5.16-2.502-3.127-6.333-5.16-11.023-5.16-9.46,0-15.558,6.958-15.558,16.183v22.047h8.834v-22.281c0-4.065,2.736-6.88,6.723-6.88,5.863,0,6.411,4.847,6.411,6.88v22.281h8.834v-22.281c0-4.065,2.814-6.88,6.723-6.88,5.863,0,6.489,4.847,6.489,6.88v22.281h8.834v-22.047c.156-9.46-5.551-16.183-15.245-16.183h0Zm183.644-4.691v10.398c-1.095-1.72-2.502-3.127-4.222-4.065s-3.674-1.485-5.942-1.485c-4.847,0-8.678,1.798-11.571,5.394s-4.378,8.834-4.378,15.089c0,5.473,1.485,9.929,4.378,13.369,2.971,3.44,8.678,5.003,13.838,5.003,17.825,0,17.669-15.323,17.669-15.323v-35.181s-9.772-1.016-9.772,6.802h0Zm-1.876,32.835c-1.407,2.033-3.518,3.049-6.176,3.049s-4.769-1.016-6.098-3.049-2.033-5.003-2.033-8.443c0-3.127.625-5.785,1.954-7.896s3.362-3.205,6.176-3.205c1.876,0,3.44.547,4.847,1.72,2.267,1.954,3.44,5.394,3.44,9.929.078,3.205-.704,5.863-2.111,7.896h0Zm-198.889,24.939c-7.974-.391-12.04,1.564-14.62,3.518-3.596,2.736-5.863,6.88-5.863,13.447v33.695h4.691c1.251,0,2.502-.469,3.44-1.251,1.016-.938,1.564-2.111,1.564-3.518v-12.665c1.173,1.954,2.658,3.44,4.534,4.378,1.798.86,3.909,1.251,6.254,1.251,4.456,0,8.131-1.798,10.945-5.316,2.814-3.674,4.3-8.443,4.3-14.307,0-5.942-1.329-10.085-4.613-14.072-2.502-3.205-6.489-5.004-10.632-5.16h0Zm3.362,27.597c-1.407,1.954-3.362,2.971-5.863,2.971-2.658,0-4.691-.938-6.098-2.971-1.407-1.798-2.111-4.456-2.111-7.974,0-3.831.625-6.645,1.954-8.443,1.407-1.954,3.44-2.971,6.02-2.971s4.691,1.016,6.098,2.971,2.111,4.769,2.111,8.443c0,3.362-.704,6.02-2.111,7.974Zm79.9-24.158c-3.284-2.502-6.645-3.831-12.431-3.674-5.863.156-10.163,1.798-12.821,5.394s-3.987,8.287-3.987,14.072c0,4.925,1.016,8.991,2.971,12.04,2.033,3.049,4.378,5.16,7.193,6.254s5.629,1.329,8.443.704c2.814-.625,5.082-2.267,6.802-4.925v2.345c-.156,2.971-.938,5.238-2.189,6.723-1.251,1.485-2.658,2.424-4.222,2.736s-3.049.156-4.613-.547c-1.564-.704-2.658-1.72-3.44-3.049h-10.242c2.658,7.974,7.427,11.492,15.949,12.04,13.76,1.016,18.216-10.711,18.216-16.965v-19.779c.156-6.411-2.033-10.632-5.629-13.369h0Zm-4.065,19.467c-.391,2.189-.938,3.831-1.798,4.847-1.798,2.424-4.534,3.284-8.209,2.58-3.753-.704-5.629-4.3-5.629-10.711,0-2.971.547-5.629,1.642-7.974s3.284-3.518,6.411-3.518c2.345,0,4.144.86,5.316,2.502,1.251,1.72,1.954,3.596,2.345,5.785.313,2.111.313,4.3-.078,6.489h0Zm-33.461-20.405c-3.127-1.564-6.723-2.424-10.789-2.424-6.254,0-10.632,1.642-13.212,4.847-1.642,2.111-2.502,4.769-2.736,7.974h9.303c.235-1.407.704-2.58,1.407-3.362.938-1.095,2.58-1.72,4.925-1.72,2.033,0,3.596.313,4.691.86s1.564,1.642,1.564,3.127c0,1.251-.704,2.189-2.111,2.736-.782.313-2.033.625-3.831.86l-3.284.391c-3.753.469-6.645,1.251-8.522,2.345-3.518,2.033-5.316,5.316-5.316,9.851,0,3.518,1.095,6.176,3.284,8.131,2.189,1.876,5.003,2.736,8.365,2.893,21.03.938,20.796-11.102,21.03-13.603v-13.838c0-4.456-1.564-7.505-4.769-9.069h0Zm-4.925,21.03c-.078,3.205-1.016,5.473-2.736,6.645-1.798,1.251-3.753,1.798-5.863,1.798-1.329,0-2.424-.391-3.362-1.095-.938-.704-1.407-1.954-1.407-3.596,0-1.876.782-3.205,2.267-4.065.938-.547,2.345-.938,4.456-1.329l2.189-.391c1.095-.235,1.954-.391,2.58-.704.625-.235,1.251-.547,1.876-.938v3.674h0Zm84.825-17.981c-3.127-3.909-7.818-5.863-14.151-5.863s-11.023,1.954-14.151,5.863-4.691,8.522-4.691,13.76,1.564,10.007,4.691,13.838c3.127,3.831,7.818,5.707,14.151,5.707s11.023-1.954,14.151-5.707c3.127-3.831,4.691-8.443,4.691-13.838s-1.564-9.851-4.691-13.76Zm-7.662,22.281c-1.485,2.033-3.674,2.971-6.489,2.971s-5.003-1.016-6.489-2.971c-1.564-2.033-2.267-4.847-2.267-8.522s.782-6.489,2.267-8.522c1.485-1.954,3.674-2.971,6.489-2.971s5.003,1.016,6.489,2.971,2.267,4.847,2.267,8.522c0,3.753-.782,6.567-2.267,8.522Z"/></g></svg>