<?xml version="1.0" encoding="UTF-8"?><svg id="Layer_2" xmlns="http://www.w3.org/2000/svg" viewBox="0 0 512 512"><defs><style>.cls-1,.cls-2{stroke-width:0px;}.cls-2{fill:#fff;}</style></defs><g id="Layer_1-2"><rect class="cls-1" width="512" height="512" rx="76.8" ry="76.8"/><path class="cls-2" d="m79.081,304.344c0-74.059,37.029-148.118,80.231-148.118,22.629,0,43.201,14.4,74.059,57.601-28.801,43.201-45.258,72.002-45.258,72.002-39.087,59.659-51.43,74.059-74.059,74.059-22.629-2.057-34.972-20.572-34.972-55.544m253.035-26.744l-26.743-43.201c-6.172-12.343-14.4-22.629-20.572-32.915,24.686-37.029,43.201-55.544,67.887-55.544,49.373,0,88.459,72.002,88.459,160.461,0,32.915-10.286,53.487-32.915,53.487-24.686-2.057-34.972-16.458-76.116-82.288m-69.945-106.974c-37.029-45.258-65.83-63.773-102.86-63.773-74.059,0-129.603,96.688-129.603,197.491,0,63.773,30.858,102.86,82.288,102.86,37.029,0,63.773-16.458,111.088-100.802,0,0,20.572-34.972,32.915-59.659,4.114,8.229,10.286,16.458,14.4,24.686l22.629,37.029c43.201,72.002,67.887,96.688,111.088,96.688,49.373,0,78.173-41.144,78.173-104.917,0-106.974-57.601-195.433-127.546-195.433-37.029,2.057-65.83,30.858-92.574,65.83"/></g></svg>