<?xml version="1.0" encoding="UTF-8"?><svg id="Layer_2" xmlns="http://www.w3.org/2000/svg" viewBox="0 0 700 700"><defs><style>.cls-1{fill:#009be1;}.cls-1,.cls-2,.cls-3,.cls-4{stroke-width:0px;}.cls-2{fill:#002c8a;}.cls-3{fill:#001f6b;}.cls-4{fill:#67c4ff;}</style></defs><g id="Camada_1"><path class="cls-4" d="m100,0h500c55,0,100,45,100,100v500c0,55-45,100-100,100H100c-55,0-100-45-100-100V100C0,45,45,0,100,0Z"/><path class="cls-2" d="m530.007,248.779l-286.836,312.991h-105.207c-7.306,0-13.151-7.306-11.69-14.612L196.412,102.95c1.461-10.228,10.228-17.535,20.457-17.535h178.268c122.742,4.384,156.35,67.216,134.431,163.656l.438-.292Z"/><path class="cls-1" d="m528.905,221.314c43.217,23.049,53.3,66.265,38.895,123.887-18.727,84.993-74.909,121.006-157.02,122.447l-23.049,1.441c-8.643,0-14.406,5.762-15.846,14.406l-18.727,113.804c-1.441,10.084-10.084,17.287-20.168,17.287h-86.433c-7.203,0-12.965-7.203-11.524-14.406l31.692-205.999c1.441-7.203,262.18-172.866,262.18-172.866Z"/><path class="cls-3" d="m264.996,404.264l28.811-182.95c1.943-8.908,9.621-15.404,18.727-15.846h138.293c33.133,0,57.622,5.762,77.79,15.846-7.203,63.384-37.454,165.663-184.391,168.545h-63.384c-7.203,0-14.406,5.762-15.846,14.406Z"/></g></svg>