<?xml version="1.0" encoding="UTF-8"?><svg id="Layer_2" xmlns="http://www.w3.org/2000/svg" viewBox="0 0 512 512"><defs><style>.cls-1{fill:#23346b;}.cls-1,.cls-2{fill-rule:evenodd;}.cls-1,.cls-2,.cls-3{stroke-width:0px;}.cls-2{fill:#24b9ec;}.cls-3{fill:#0067cd;}</style></defs><g id="Layer_1-2"><rect class="cls-3" width="512" height="512" rx="76.8" ry="76.8"/><g id="Page-1"><g id="Paytm-Mall-Copy"><g id="Page-1-2"><g id="Group-Copy"><path id="Fill-1" class="cls-2" d="m480.5,217.761c-4.124-11.936-15.31-20.56-28.434-20.56h-.25c-8.561,0-16.248,3.624-21.685,9.436-5.499-5.812-13.186-9.436-21.685-9.436h-.25c-7.499,0-14.373,2.812-19.622,7.436v-2.312c-.187-2.375-2.062-4.187-4.437-4.187h-20.122c-2.437,0-4.437,2.062-4.437,4.562v111.485c0,2.5,2,4.562,4.437,4.562h20.122c2.25,0,4.062-1.687,4.374-3.937v-80.051c0-.25,0-.562.062-.812.312-3.562,2.875-6.499,6.937-6.874h3.687c1.687.125,3.125.75,4.249,1.687,1.75,1.437,2.75,3.624,2.75,5.999v14.623h0v62.054l.062,2.937c0,2.5,2,4.562,4.437,4.562h20.122c2.375,0,4.312-1.937,4.437-4.312v-79.926c0-2.625,1.187-4.999,3.312-6.437,1-.687,2.25-1.125,3.687-1.25h3.687c4.374.375,6.999,3.749,6.999,7.686v14.623h0v4.124h.062v60.742c0,2.5,2,4.562,4.437,4.562h20.122c2.437,0,4.437-2.062,4.437-4.562v-85.551c0-5.812-.625-8.311-1.5-10.874"/><path id="Fill-3" class="cls-2" d="m344.082,198.388h-11.498v-18.997h0v-.062c0-2.312-1.812-4.124-4.062-4.124-.25,0-.5.062-.75.062-12.811,3.562-10.186,21.622-33.558,23.122h-2.25c-.312,0-.687.062-1,.125h0c-2,.437-3.5,2.25-3.5,4.437v20.497c0,2.5,2,4.562,4.437,4.562h12.123v87.05c0,2.5,2,4.499,4.374,4.499h19.935c2.437,0,4.374-2,4.374-4.499v-19.31h0v-67.741h11.311c2.437,0,4.437-2.062,4.437-4.562v-20.497c.125-2.5-1.875-4.562-4.374-4.562"/><path id="Fill-4" class="cls-1" d="m271.592,198.388h-20.122c-2.437,0-4.437,2.062-4.437,4.562v10.998h-.062v13.436c.062.312.125.625.125.937v17.06c-.062,2.625-2.125,4.749-4.687,4.749h-8.436c-2.625,0-4.749-2.125-4.749-4.812v-31.371h-.062v-10.998c0-2.5-2-4.562-4.437-4.562h-20.122c-2.437,0-4.437,2.062-4.437,4.562v46.556c0,17.685,12.373,30.246,29.746,30.246h12.748s.312,0,.687.062c2.375.25,4.187,2.312,4.187,4.749s-1.812,4.437-4.124,4.749c-.125,0-.187.062-.312.062l-5.749.125h-23.747c-2.437,0-4.437,2.062-4.437,4.562v20.497c0,2.5,2,4.562,4.437,4.562h32.933c17.373,0,29.746-12.623,29.746-30.246v-85.926c-.187-2.5-2.187-4.562-4.687-4.562"/><path id="Fill-5" class="cls-1" d="m76.619,236.008v12.686c0,2.687-2.125,4.812-4.749,4.812h-12.748v-25.372h12.811c2.625,0,4.749,2.125,4.749,4.812v3.062h-.062Zm1.812-37.62h-44.056c-2.437,0-4.374,2-4.374,4.437v111.61c0,2.5,1.812,4.499,4.062,4.562h20.497c2.437,0,4.437-2,4.437-4.562l.062-31.183h19.247c16.123,0,27.371-11.373,27.371-27.934v-28.933c.125-16.56-11.123-27.996-27.246-27.996h0Z"/><path id="Fill-6" class="cls-1" d="m160.232,284.252v3.187c0,.25-.062.5-.062.75-.062.25-.125.437-.187.687h0c-.625,1.812-2.375,3.062-4.499,3.062h-8.374c-2.625,0-4.749-2-4.749-4.499v-14.311h0v-3.187h0c0-2.5,2.125-4.499,4.749-4.499h8.374c2.625,0,4.749,2,4.749,4.499v14.311h0Zm-3.187-85.738h-27.934c-2.5,0-4.499,1.937-4.499,4.249v19.31c0,2.5,2.125,4.499,4.749,4.499h26.621c2.125.312,3.749,1.875,3.999,4.312v2.625c-.25,2.312-1.875,3.999-3.874,4.187h-13.186c-17.56,0-29.996,11.873-29.996,28.559v23.872c0,16.56,10.749,28.371,28.121,28.371h36.557c6.562,0,11.873-5.062,11.873-11.311v-77.864c-.062-18.872-9.624-30.808-32.433-30.808h0Z"/></g></g></g></g></g></svg>