<?xml version="1.0" encoding="UTF-8"?><svg id="Layer_2" xmlns="http://www.w3.org/2000/svg" viewBox="0 0 512 512"><defs><style>.cls-1{fill:none;}.cls-1,.cls-2,.cls-3,.cls-4{stroke-width:0px;}.cls-2{fill:#5f259f;}.cls-3{fill:#9788ff;}.cls-4{fill:#fff;}</style></defs><g id="Layer_1-2"><rect class="cls-3" width="512" height="512" rx="76.8" ry="76.8"/><circle class="cls-2" cx="84.977" cy="253.506" r="63.666"/><path class="cls-2" d="m343.509,289.85v-23.198c0-5.671-2.062-8.506-7.475-8.506-2.062,0-4.124.258-5.928.773v33.766c0,1.031-1.031,2.062-2.062,2.062h-8.248c-1.031,0-2.062-1.031-2.062-2.062v-39.437c0-1.289.773-2.32,2.062-2.835,5.155-1.804,10.826-2.835,16.497-2.835,12.888,0,19.847,6.702,19.847,19.332v26.291c0,1.031-1.031,2.062-2.062,2.062h-4.897c-2.835,0-5.155-2.062-5.413-4.897-.258-.258-.258-.516-.258-.516Zm31.962-13.919l-.258,3.093c0,4.382,2.835,6.702,7.475,6.702,3.609,0,7.217-1.031,10.31-2.835.258,0,.773-.258,1.031-.258.516,0,1.031.258,1.547.773.516.516.773,1.031,1.031,1.547.773,1.031,1.289,2.32,1.547,3.609,0,1.804-1.031,3.351-2.578,4.382-4.124,2.062-8.764,3.351-13.403,3.093-4.897.258-9.795-1.289-13.919-4.382-3.609-3.351-5.671-7.991-5.671-12.888v-13.919c0-11.084,7.217-17.785,19.074-17.785s18.559,6.444,18.559,17.785v8.506c0,1.031-1.031,2.062-2.062,2.062h-22.425l-.258.516Zm-.258-7.733h13.403v-3.609c.258-3.609-2.062-6.702-5.671-7.217h-1.031c-3.351-.258-6.444,2.32-6.702,5.671v5.155Zm90.731,7.733l-.258,3.093c0,4.382,2.835,6.702,7.475,6.702,3.609,0,7.217-1.031,10.31-2.835.258,0,.773-.258,1.031-.258.516,0,1.031.258,1.547.773.258.516.773,1.031,1.031,1.547.773,1.031,1.289,2.32,1.547,3.609,0,1.804-1.031,3.351-2.578,4.382-4.124,2.062-8.764,3.351-13.403,3.093-4.897.258-9.795-1.289-13.919-4.382-3.609-3.351-5.671-7.991-5.671-12.888v-13.919c0-11.084,7.217-17.785,19.074-17.785s18.559,6.444,18.559,17.785v8.506c0,1.031-1.031,2.062-2.062,2.062h-22.683v.516Zm-.258-7.733h13.403v-3.609c.258-3.609-2.062-6.702-5.671-6.959h-1.031c-3.351-.258-6.444,2.32-6.702,5.671v4.897Zm-209.3,27.065h4.897c1.031,0,2.062-1.031,2.062-2.062v-26.549c0-12.115-6.444-19.332-17.012-19.332-3.093,0-5.928.516-8.764,1.547v-13.146c0-2.835-2.32-5.155-5.413-5.413h-4.897c-1.031,0-2.062,1.031-2.062,2.062v60.573c0,1.031,1.031,2.062,2.062,2.062h8.248c1.031,0,2.062-1.031,2.062-2.062v-33.509c2.062-.773,3.866-1.031,5.928-1.031,5.413,0,7.475,2.578,7.475,8.506v23.198c.258,2.835,2.578,4.897,5.413,5.155h0Zm53.614-29.9v13.146c0,11.084-7.475,17.785-19.847,17.785-12.115,0-19.847-6.702-19.847-17.785v-13.146c0-11.084,7.475-17.785,19.847-17.785s19.847,6.702,19.847,17.785Zm-12.372,0c.258-3.609-2.32-6.702-5.928-7.217h-1.289c-3.609-.516-6.702,2.062-7.217,5.671v14.692c0,3.866,3.093,7.217,7.217,7.217,3.866,0,7.217-3.093,7.217-7.217v-13.146Zm-79.39-6.186c0,11.341-8.506,19.074-19.847,19.074-2.578,0-5.155-.516-7.733-1.547v15.981c0,1.031-1.031,2.062-2.062,2.062h-8.248c-1.031,0-2.062-1.031-2.062-2.062v-56.707c0-1.289,1.031-2.32,2.062-2.835,5.413-1.804,10.826-2.835,16.497-2.835,12.888,0,21.652,7.733,21.652,19.847l-.258,9.022Zm-12.888-9.279c0-5.671-3.866-8.506-9.279-8.506-1.804,0-3.609.258-5.413,1.031v23.456c1.804,1.031,3.609,1.547,5.671,1.547,4.64.516,8.764-2.835,9.279-7.475v-10.053s-.258,0-.258,0Zm242.551,9.279c0,11.341-8.506,19.074-19.847,19.074-2.578,0-5.155-.516-7.733-1.547v15.981c0,1.031-1.031,2.062-2.062,2.062h-8.248c-1.031,0-2.062-1.031-2.062-2.062v-56.707c0-1.289.773-2.32,2.062-2.835,5.155-1.804,10.826-2.835,16.497-2.835,12.888,0,21.652,7.733,21.652,19.847l-.258,9.022Zm-12.888-9.279c0-5.671-3.866-8.506-9.279-8.506-1.804,0-3.609.258-5.413,1.031v23.456c1.804,1.031,3.609,1.547,5.671,1.547,4.64.516,8.764-2.835,9.279-7.475v-10.053s-.258,0-.258,0Z"/><path class="cls-4" d="m113.846,236.752c0-2.578-2.062-4.64-4.64-4.64h-8.506l-19.59-22.425c-1.804-2.062-4.897-2.835-7.475-2.062l-6.702,2.062c-.773.258-1.289,1.031-1.031,2.062,0,.258.258.516.258.516l21.394,20.363h-32.22c-1.031,0-1.804.773-1.804,1.547v3.866c0,2.578,2.062,4.64,4.64,4.64h4.897v17.012c0,12.888,6.702,20.363,18.043,20.363,3.351,0,6.702-.516,10.053-1.804v11.341c0,3.093,2.32,5.671,5.413,5.671h5.155c1.031,0,2.062-1.031,2.062-2.062v-51.036h8.248c1.031,0,1.804-.516,1.804-1.547v-3.866Zm-22.683,30.673c-2.32,1.031-4.64,1.547-7.217,1.547-5.671,0-8.506-2.835-8.506-9.279v-17.27h15.723v25.003Z"/><rect class="cls-1" x="6.685" y="178.756" width="502.629" height="149.5"/></g></svg>