<svg width="18" height="18" viewBox="0 0 18 18" fill="none" xmlns="http://www.w3.org/2000/svg">
<g clip-path="url(#clip0_3603_68)">
<path d="M16.9434 5.44721L11.8859 0.390625C11.7621 0.266784 11.6151 0.168546 11.4533 0.101521C11.2916 0.0344972 11.1182 0 10.943 0C10.7679 0 10.5945 0.0344972 10.4327 0.101521C10.2709 0.168546 10.124 0.266784 10.0001 0.390625L5.53105 4.87388C4.64273 4.59555 2.61443 4.25973 0.4978 5.96886C0.351906 6.08618 0.232353 6.2329 0.146923 6.39948C0.0614918 6.56606 0.0120983 6.74876 0.00195759 6.9357C-0.00818309 7.12263 0.0211562 7.30961 0.0880656 7.48445C0.154975 7.65929 0.257955 7.81809 0.390301 7.9505L4.4169 11.9754L0.86196 15.5279C0.736868 15.653 0.666593 15.8226 0.666593 15.9995C0.666593 16.1764 0.736868 16.3461 0.86196 16.4712C0.987052 16.5963 1.15671 16.6666 1.33362 16.6666C1.51052 16.6666 1.68019 16.5963 1.80528 16.4712L5.35772 12.9162L9.38182 16.9403C9.50552 17.0646 9.65252 17.1632 9.81439 17.2305C9.97625 17.2979 10.1498 17.3326 10.3251 17.3328C10.3568 17.3328 10.3876 17.3328 10.4193 17.3328C10.6094 17.3197 10.7944 17.2657 10.9617 17.1747C11.1291 17.0837 11.2749 16.9577 11.3893 16.8053C13.0259 14.6304 12.8684 12.8621 12.4884 11.8054L16.9442 7.33301C17.068 7.20914 17.1661 7.0621 17.2331 6.90028C17.3001 6.73847 17.3345 6.56505 17.3344 6.38993C17.3343 6.21481 17.2997 6.04143 17.2326 5.87967C17.1656 5.71792 17.0672 5.57096 16.9434 5.44721ZM16 6.39052L11.2276 11.1788C11.1291 11.2777 11.0641 11.4051 11.0418 11.5429C11.0195 11.6808 11.0411 11.8222 11.1035 11.9471C11.8918 13.5246 10.9535 15.1629 10.3251 15.9987L1.33362 7.00635C2.34027 6.19469 3.30359 5.98053 4.04024 5.98053C4.50767 5.97415 4.97125 6.06584 5.40105 6.24969C5.52644 6.31245 5.66843 6.33407 5.80682 6.31148C5.9452 6.28888 6.07294 6.22323 6.17187 6.12386L10.9435 1.33311L16 6.38969V6.39052Z" fill="black"/>
</g>
<defs>
<clipPath id="clip0_3603_68">
<rect width="18" height="17.333" fill="white"/>
</clipPath>
</defs>
</svg>
