<svg width="17" height="17" viewBox="0 0 17 17" fill="none" xmlns="http://www.w3.org/2000/svg">
<g clip-path="url(#clip0_3590_24)">
<path d="M16.8156 15.9247L12.875 11.9848C14.0171 10.6136 14.5866 8.85485 14.4651 7.0744C14.3435 5.29396 13.5402 3.62892 12.2223 2.42566C10.9044 1.2224 9.17332 0.57355 7.38919 0.614097C5.60506 0.654644 3.90525 1.38146 2.64336 2.64336C1.38146 3.90525 0.654644 5.60506 0.614097 7.38919C0.57355 9.17332 1.2224 10.9044 2.42566 12.2223C3.62892 13.5402 5.29396 14.3435 7.0744 14.4651C8.85485 14.5866 10.6136 14.0171 11.9848 12.875L15.9247 16.8156C15.9832 16.8741 16.0526 16.9205 16.129 16.9521C16.2055 16.9838 16.2874 17.0001 16.3701 17.0001C16.4528 17.0001 16.5348 16.9838 16.6112 16.9521C16.6876 16.9205 16.7571 16.8741 16.8156 16.8156C16.8741 16.7571 16.9205 16.6876 16.9521 16.6112C16.9838 16.5348 17.0001 16.4528 17.0001 16.3701C17.0001 16.2874 16.9838 16.2055 16.9521 16.129C16.9205 16.0526 16.8741 15.9832 16.8156 15.9247ZM1.88893 7.55548C1.88893 6.43475 2.22127 5.33918 2.84392 4.40732C3.46657 3.47546 4.35156 2.74916 5.38699 2.32027C6.42241 1.89139 7.56177 1.77917 8.66097 1.99781C9.76017 2.21646 10.7699 2.75615 11.5623 3.54863C12.3548 4.34111 12.8945 5.35079 13.1132 6.44999C13.3318 7.5492 13.2196 8.68855 12.7907 9.72398C12.3618 10.7594 11.6355 11.6444 10.7036 12.267C9.77179 12.8897 8.67622 13.222 7.55548 13.222C6.05313 13.2204 4.61279 12.6228 3.55047 11.5605C2.48814 10.4982 1.8906 9.05783 1.88893 7.55548Z" fill="#183028"/>
</g>
<defs>
<clipPath id="clip0_3590_24">
<rect width="17" height="17" fill="white"/>
</clipPath>
</defs>
</svg>
