<?xml version="1.0" encoding="UTF-8"?><svg id="Layer_2" xmlns="http://www.w3.org/2000/svg" viewBox="0 0 210.145 306"><defs><style>.cls-1{fill:#fff;fill-rule:evenodd;stroke-width:0px;}</style></defs><g id="Layer_1-2"><path class="cls-1" d="m171.124,0c6.729,1.516,13.396,3.35,20,5.5,3.376,5.253,6.876,10.42,10.5,15.5.985,1.866,1.485,3.866,1.5,6-.755,7.04-1.755,14.04-3,21-2.012-.952-3.012-2.619-3-5,.585-5.011,1.251-10.011,2-15-2.382-7.055-6.049-13.389-11-19-5.544-2.135-11.211-3.802-17-5V0Z"/><path class="cls-1" d="m172.124,9c13.202.868,20.535,7.868,22,21-.582,4.318-.915,8.652-1,13-1.322.17-2.489-.163-3.5-1,.146-5.324.146-10.657,0-16-2.062-2.401-3.729-5.067-5-8-3.713-2.739-7.88-4.406-12.5-5v-4Z"/><path class="cls-1" d="m171.124,17c7.876.709,12.876,4.876,15,12.5-.545,3.187-1.211,6.354-2,9.5-1.884-.615-2.884-1.948-3-4,1.124-7.386-2.043-12.053-9.5-14-.49-1.293-.657-2.627-.5-4Z"/><path class="cls-1" d="m170.124,27c4.651.739,6.151,3.406,4.5,8-3.987,2.757-6.487,1.757-7.5-3,.271-2.193,1.271-3.859,3-5Z"/><path class="cls-1" d="m91.124,32h29c-.166,6.342,0,12.675.5,19,29.259,16.714,58.759,33.047,88.5,49,1.166,13.321,1.333,26.654.5,40-34.349-18.674-68.683-37.341-103-56-23.72,11.776-47.22,23.943-70.5,36.5-1.316,8.774-1.316,17.607,0,26.5,34.828,18.913,69.494,38.08,104,57.5-11.667,6.5-23.333,13-35,19.5-35.073-18.619-69.907-37.619-104.5-57C-.043,145.333-.043,123.667.624,102c29.753-16.793,59.586-33.46,89.5-50,.997-6.633,1.33-13.3,1-20Z"/><path class="cls-1" d="m104.124,115c2.925-.04,5.591.793,8,2.5,32.42,17.96,64.92,35.794,97.5,53.5.833,22.008.666,44.008-.5,66-29.333,16.333-58.667,32.667-88,49-.997,6.634-1.33,13.3-1,20h-29c.33-6.368-.004-12.702-1-19-29.506-16.587-59.173-32.921-89-49-.999-12.983-1.332-25.983-1-39,34.975,18.24,69.809,36.907,104.5,56,23.421-12.627,46.921-25.127,70.5-37.5,1.333-8.667,1.333-17.333,0-26-34.667-19-69.333-38-104-57,11.063-6.526,22.063-13.026,33-19.5Z"/></g></svg>