<?xml version="1.0" encoding="utf-8"?>
<!-- Generator: Adobe Illustrator 16.0.0, SVG Export Plug-In . SVG Version: 6.00 Build 0)  -->
<!DOCTYPE svg PUBLIC "-//W3C//DTD SVG 1.1//EN" "http://www.w3.org/Graphics/SVG/1.1/DTD/svg11.dtd">
<svg version="1.1" xmlns="http://www.w3.org/2000/svg" xmlns:xlink="http://www.w3.org/1999/xlink" x="0px" y="0px"
	 width="720.001px" height="720.009px" viewBox="0 0 720.001 720.009" enable-background="new 0 0 720.001 720.009"
	 xml:space="preserve">
<g id="Background" display="none">
	<rect display="inline" fill="#030303" width="720.001" height="720.009"/>
</g>
<g id="Logos">
	<g>
		<g>
			<path fill="#FFFFFF" d="M597.13,521.925c0,41.533-33.672,75.213-75.213,75.213H198.083c-41.541,0-75.213-33.68-75.213-75.213
				V198.091c0-41.549,33.672-75.221,75.213-75.221h323.834c41.541,0,75.213,33.672,75.213,75.221V521.925z"/>
			<g>
				<g>
					<g>
						<path fill="#030303" d="M404.849,405.798l-142.854-79.396l0.004-19.488c0-0.107,0-0.221,0-0.334v-1.164
							c0.004-5.525,0.317-10.115,7.161-13.914l0,0l81.003-45.025c3.214-1.789,6.559-2.059,9.838-2.059s6.62,0.27,9.834,2.059
							l134.837,74.938v-53.389l-121.337-67.436v-28.064h-46.668v28.064l-100.789,56.01c-17.833,9.92-20.551,22.875-20.551,40.955
							v56.303l141.488,78.639L404.849,405.798z"/>
					</g>
					<g>
						<path fill="#030303" d="M315.151,314.212l142.851,79.395v19.49c0,0.113,0,0.219,0,0.334v1.162
							c-0.008,5.525-0.317,10.115-7.161,13.924c-0.004,0-0.004,0-0.004,0l-81.003,45.016c-3.214,1.791-6.555,2.059-9.834,2.059
							s-6.624-0.268-9.838-2.059l-134.836-74.938v53.391l121.34,67.434v28.074h46.668v-28.074l100.786-56.01
							c17.832-9.91,20.551-22.873,20.551-40.955v-56.303l-141.489-78.639L315.151,314.212z"/>
					</g>
				</g>
			</g>
		</g>
	</g>
</g>
</svg>
