<?xml version="1.0" encoding="UTF-8"?><svg id="Layer_2" xmlns="http://www.w3.org/2000/svg" viewBox="0 0 700 700"><defs><style>.cls-1,.cls-2{stroke-width:0px;}.cls-2{fill:#fff;}</style></defs><g id="Camada_1"><path class="cls-1" d="m100,0h500c55,0,100,45,100,100v500c0,55-45,100-100,100H100c-55,0-100-45-100-100V100C0,45,45,0,100,0Z"/><path class="cls-2" d="m349,44c-163.763,0-297,133.234-297,297s133.237,297,297,297,297-133.234,297-297S512.769,44,349,44Zm229.975,375.475c-32.646,95.681-123.241,164.526-229.975,164.526-134.204,0-243.001-108.797-243.001-243.001,0-16.049,1.598-31.717,4.57-46.896,1.94,6.413,4.196,12.713,7.419,18.575,14.889,27.106,46.226,40.042,75.488,50.061,10.19,3.493,31.202,6.362,37.931,15.304,6.149,8.163,2.004,20.209,4.834,29.471,3.139,10.267,13.419,16.226,21.779,22.961,15.204,12.243,25.904,29.951,29.681,49.1,2.372,12.053,2.095,24.592,5.472,36.403,2.694,9.407,16.326,32.223,29.474,24.512,7.515-4.409,6.039-24.492,7.831-32.078,3.068-13.013,8.34-25.407,15.527-36.683,11.653-18.295,47.36-55.085,34.656-79.107-5.053-9.549-18.685-13.496-27.921-17.518-12.369-5.382-25.066-10.126-38.259-13.049-19.349-4.283-35.713-.28-54.979-.445-17.512-.148-54.991-12.713-51.279-36.352,1.489-9.478,10.603-15.778,19.491-19.4,8.882-3.622,18.691-5.962,25.71-12.504,10.467-9.765,11.904-26.226,21.495-36.858,10.132-11.234,28.791-15.533,32.749-30.138,2.817-10.406-4.177-21.589-13.729-26.59-9.552-5.005-20.915-5.063-31.627-3.803-13.993,1.647-33.49,8.108-46.11-.893-9.964-7.112-10.261-21.311-10.345-32.349-.045-5.907-.232-11.811-.471-17.712,27.367-20.09,59.084-34.595,93.489-41.811.116,8.827,1.953,18.682,6.896,23.919,13.567,14.36,30.1,14.363,25.904,38.862-2.359,13.809-4.241,37.012,9.765,45.829,26.013,16.381,39.613-20.251,54.083-33.925,5.556-5.253,12.414-8.904,18.453-13.596,14.844-11.534,12.955-34.07,30.351-43.119,1.354-.703,2.765-1.244,4.151-1.866,16.642,7.48,32.317,16.735,46.716,27.599-9.571,18.334-11.337,39.574-18.208,58.926-7.431,20.941-24.112,31.205-36.945,48.227-11.196,14.856-32.555,38.678-29.268,58.936,2.121,13.094,15.101,21.389,27.438,26.255,12.343,4.866,26.052,8.527,34.624,18.65,10.963,12.942,9.442,30.66,15.617,45.578,5.943,14.354,20.006,23.983,35.011,26.822,13.484,2.552,27.915.409,40.709-4.286,3.042-1.115,8.998-3.551,14.805-6.539Z"/></g></svg>