<svg width="12" height="12" viewBox="0 0 12 12" fill="none" xmlns="http://www.w3.org/2000/svg">
<g clip-path="url(#clip0_3598_54)">
<path d="M5.29504 8.8868C5.34575 8.93745 5.38598 8.99761 5.41343 9.06382C5.44087 9.13004 5.455 9.20101 5.455 9.27269C5.455 9.34436 5.44087 9.41534 5.41343 9.48155C5.38598 9.54777 5.34575 9.60792 5.29504 9.65858L3.11333 11.8403C3.06267 11.891 3.00252 11.9312 2.9363 11.9587C2.87009 11.9861 2.79912 12.0003 2.72744 12.0003C2.65576 12.0003 2.58479 11.9861 2.51857 11.9587C2.45236 11.9312 2.3922 11.891 2.34155 11.8403L0.159841 9.65858C0.109165 9.6079 0.0689668 9.54774 0.0415412 9.48153C0.0141157 9.41532 0 9.34435 0 9.27269C0 9.20102 0.0141157 9.13006 0.0415412 9.06384C0.0689668 8.99763 0.109165 8.93747 0.159841 8.8868C0.262185 8.78445 0.400994 8.72696 0.54573 8.72696C0.617396 8.72696 0.688361 8.74107 0.754572 8.7685C0.820783 8.79592 0.880944 8.83612 0.93162 8.8868L2.18201 10.1379V0.545856C2.18201 0.4012 2.23948 0.262468 2.34176 0.160181C2.44405 0.0578937 2.58278 0.000429132 2.72744 0.000429132C2.87209 0.000429132 3.01083 0.0578937 3.11311 0.160181C3.2154 0.262468 3.27286 0.4012 3.27286 0.545856V10.1379L4.52326 8.8868C4.57391 8.83609 4.63407 8.79585 4.70028 8.76841C4.76649 8.74096 4.83747 8.72683 4.90915 8.72683C4.98082 8.72683 5.0518 8.74096 5.11801 8.76841C5.18423 8.79585 5.24438 8.83609 5.29504 8.8868ZM11.8402 2.34167L9.65845 0.159967C9.6078 0.109255 9.54764 0.0690246 9.48143 0.0415764C9.41521 0.0141281 9.34424 0 9.27256 0C9.20088 0 9.12991 0.0141281 9.06369 0.0415764C8.99748 0.0690246 8.93733 0.109255 8.88667 0.159967L6.70496 2.34167C6.60262 2.44402 6.54512 2.58283 6.54512 2.72756C6.54512 2.8723 6.60262 3.01111 6.70496 3.11345C6.80731 3.2158 6.94612 3.27329 7.09085 3.27329C7.23559 3.27329 7.3744 3.2158 7.47674 3.11345L8.72713 1.86238V11.4544C8.72713 11.5991 8.7846 11.7378 8.88689 11.8401C8.98917 11.9424 9.1279 11.9998 9.27256 11.9998C9.41722 11.9998 9.55595 11.9424 9.65824 11.8401C9.76052 11.7378 9.81799 11.5991 9.81799 11.4544V1.86238L11.0684 3.11345C11.1707 3.2158 11.3095 3.27329 11.4543 3.27329C11.599 3.27329 11.7378 3.2158 11.8402 3.11345C11.9425 3.01111 12 2.8723 12 2.72756C12 2.58283 11.9425 2.44402 11.8402 2.34167Z" fill="white"/>
</g>
<defs>
<clipPath id="clip0_3598_54">
<rect width="12" height="12.0002" fill="white"/>
</clipPath>
</defs>
</svg>
