<?xml version="1.0" encoding="UTF-8"?><svg id="Layer_2" xmlns="http://www.w3.org/2000/svg" viewBox="0 0 512 512"><defs><style>.cls-1{fill:#6c1cd3;}.cls-1,.cls-2{stroke-width:0px;}.cls-2{fill:#fff;}</style></defs><g id="Layer_1-2"><rect class="cls-1" width="512" height="512" rx="76.8" ry="76.8"/><path id="path6" class="cls-2" d="m130.196,210.445l-26.674-.246v17.696s44.206,0,44.206,0l-45.94,58.886v14.975h28.408v17.248h17.045v-17.248h28.977c.244-.69.329-2.55-1.213-4.255-2.557-2.841-4.59-5.81-6.457-9.543-.852-1.664-1.499-3.657-1.743-3.819-5.706-.261-38.533-.194-38.516-.401l45.981-59.247v-14.046h-27.029v-17.451h-17.045v17.451Z"/><path id="path8" class="cls-2" d="m253.285,202.207c-.406.162-.528,9.131-.528,43.1,0,45.9-.041,45.129,1.989,49.065,1.826,3.531,6.29,6.696,11.282,7.995,2.76.731,10.876.812,14.001.162,4.018-.852,4.789-2.07,3.206-5.195-1.015-1.948-2.354-6.209-2.679-8.563-.446-2.8-1.015-3.247-4.424-3.166-1.623.041-3.166-.081-3.45-.244-1.664-1.055-1.664-1.339-1.664-42.45,0-26.42-.122-39.691-.406-40.218-.406-.731-.933-.771-8.644-.731-4.505,0-8.441.122-8.685.244Z"/><path id="path10" class="cls-2" d="m290.5,202.329c-.528.325-.609,5.519-.609,42.694,0,40.056.041,42.491.771,45.291,1.38,5.519,4.505,8.888,10.43,11.363,2.273.933,3.287,1.096,7.873,1.218,6.128.162,9.253-.284,12.378-1.867,3.084-1.502,3.166-2.557.528-6.412-1.055-1.542-2.679-4.18-3.571-5.844l-1.623-3.044-2.963-.041c-3.693-.081-4.058-.244-4.748-1.989-.528-1.177-.609-7.224-.609-40.786,0-26.42-.122-39.691-.406-40.218-.406-.731-.933-.771-8.644-.771-4.505,0-8.482.203-8.807.406Z"/><path id="path12" class="cls-2" d="m398.452,211.054c-3.287,1.502-4.992,4.099-5.032,7.711-.041,3.084,1.218,5.438,3.774,7.102,3.166,2.151,8.238,1.542,10.876-1.299,3.368-3.612,2.679-9.862-1.461-12.662-2.151-1.461-5.925-1.826-8.157-.852Zm6.493,1.502c4.586,2.313,5.276,8.238,1.38,11.688-1.664,1.461-2.841,1.786-5.398,1.542-7.062-.69-8.441-10.592-1.867-13.555,1.786-.812,3.855-.69,5.885.325Z"/><path id="path14" class="cls-2" d="m398.736,214.382c-.284.487-.325,8.036-.041,8.807.122.365.487.649.812.649.406,0,.568-.568.568-2.029,0-1.826.081-2.029.933-2.029.649,0,1.218.568,2.11,2.029.731,1.218,1.461,2.029,1.907,2.029.974,0,.933-.162-.568-2.354-.893-1.299-1.136-1.907-.771-2.029,1.055-.365,2.07-1.705,2.07-2.719,0-1.826-1.299-2.638-4.221-2.638-1.461,0-2.719.122-2.8.284Zm4.911,1.299c.325.162.487.771.406,1.299-.122.852-.365.974-2.029,1.096l-1.948.122v-1.42c0-1.42.041-1.461,1.542-1.461.812,0,1.745.162,2.029.365Z"/><path id="path16" class="cls-2" d="m202.231,227.693c-.203.081-1.786.446-3.45.812-10.43,2.394-19.642,10.389-23.538,20.535-2.151,5.601-2.922,9.943-2.963,16.396-.041,9.05,1.786,15.706,5.966,22.037,4.708,7.102,11.607,11.932,20.535,14.367,3.044.812,4.383.933,11.363.933,6.899,0,8.32-.122,11.201-.893,7.143-1.989,13.23-5.276,18.141-9.943,3.125-2.922,3.084-3.734-.081-6.169-1.299-1.015-3.653-3.206-5.195-4.911-1.948-2.07-3.125-3.044-3.734-3.044-.568,0-1.867.812-3.125,2.029-4.342,3.937-9.821,5.803-17.004,5.763-6.575-.041-11.363-1.745-14.407-5.235-1.542-1.745-3.49-5.722-3.896-7.954l-.244-1.502h25.283c13.92,0,25.568-.162,25.852-.365,1.339-.852,1.664-6.737.69-13.149-2.313-15.341-11.485-25.649-25.892-29.098-2.557-.609-4.667-.812-9.212-.771-3.247,0-6.047.081-6.29.162Zm10.836,15.665c2.963.609,6.615,2.638,8.32,4.586,1.583,1.786,3.206,4.992,3.612,7.062l.284,1.299h-33.075l.284-1.299c1.218-5.479,5.925-10.065,11.769-11.526,2.597-.649,6.088-.69,8.807-.122Z"/><path id="path18" class="cls-2" d="m349.752,228.058c-14.407,3.206-24.147,13.352-27.191,28.327-1.826,8.847-.812,19.155,2.638,26.542,4.708,10.227,13.271,16.842,24.959,19.237,3.693.771,5.154.852,10.958.69,4.911-.162,7.549-.446,9.821-1.055,6.94-1.826,13.027-5.154,17.694-9.618,3.571-3.45,3.571-3.612-.284-6.818-1.786-1.461-4.18-3.774-5.316-5.114-2.638-3.044-3.328-3.084-6.29-.406-4.424,4.018-9.699,5.803-17.045,5.763-10.308-.041-16.315-4.464-18.263-13.393l-.284-1.053h51.419c1.745-1.258,1.096-14.571-1.015-20.74-.406-1.218-1.502-3.653-2.394-5.357-4.748-9.091-12.337-14.732-22.889-16.964-3.368-.731-13.311-.731-16.517-.041Zm12.662,15.3c2.76.609,5.601,2.029,7.63,3.855,1.705,1.583,4.464,6.575,4.464,8.117v.974h-32.954l.284-1.136c2.11-8.685,11.039-13.839,20.576-11.81Z"/></g></svg>